ComicNeue-Angular_Light_Oblique.ufo
<glyph name="exclam" format="1">
  <advance width="175"/>
  <unicode hex="0021"/>
  <outline>
    <contour>
      <point x="83" y="165" type="line"/>
      <point x="45" y="156" type="line"/>
      <point x="158" y="691" type="line"/>
      <point x="196" y="698" type="line"/>
    </contour>
    <contour>
      <point x="64" y="73" type="line"/>
      <point x="43" y="9" type="line"/>
      <point x="6" y="2" type="line"/>
      <point x="26" y="66" type="line"/>
    </contour>
  </outline>
</glyph>
<glyph name="quotedbl" format="1">
  <advance width="302"/>
  <unicode hex="0022"/>
  <outline>
    <contour>
      <point x="166" y="530" type="line"/>
      <point x="130" y="523" type="line"/>
      <point x="165" y="688" type="line"/>
      <point x="201" y="696" type="line"/>
    </contour>
    <contour>
      <point x="291" y="530" type="line"/>
      <point x="255" y="523" type="line"/>
      <point x="290" y="688" type="line"/>
      <point x="326" y="696" type="line"/>
    </contour>
  </outline>
</glyph>
<glyph name="dollar" format="1">
  <advance width="595"/>
  <unicode hex="0024"/>
  <outline>
    <contour>
      <point x="411" y="647" type="curve"/>
      <point x="354" y="381" type="line"/>
      <point x="471" y="345"/>
      <point x="531" y="290"/>
      <point x="531" y="218" type="curve" smooth="yes"/>
      <point x="531" y="93"/>
      <point x="394" y="12"/>
      <point x="274" y="0" type="curve"/>
      <point x="259" y="-69" type="line"/>
      <point x="223" y="-76" type="line"/>
      <point x="239" y="-1" type="line"/>
      <point x="132" y="7"/>
      <point x="56" y="58"/>
      <point x="43" y="140" type="curve"/>
      <point x="89" y="147" type="line"/>
      <point x="105" y="81"/>
      <point x="172" y="40"/>
      <point x="247" y="38" type="curve"/>
      <point x="314" y="350" type="line"/>
      <point x="234" y="376"/>
      <point x="155" y="421"/>
      <point x="155" y="496" type="curve" smooth="yes"/>
      <point x="155" y="630"/>
      <point x="305" y="681"/>
      <point x="385" y="685" type="curve"/>
      <point x="399" y="752" type="line"/>
      <point x="435" y="759" type="line"/>
      <point x="420" y="688" type="line"/>
      <point x="486" y="686"/>
      <point x="605" y="667"/>
      <point x="605" y="576" type="curve" smooth="yes"/>
      <point x="605" y="568"/>
      <point x="604" y="560"/>
      <point x="602" y="551" type="curve" smooth="yes"/>
      <point x="600" y="542" type="line"/>
      <point x="563" y="533" type="line"/>
      <point x="565" y="545" type="line" smooth="yes"/>
      <point x="566" y="551"/>
      <point x="567" y="557"/>
      <point x="567" y="563" type="curve" smooth="yes"/>
      <point x="567" y="622"/>
      <point x="492" y="646"/>
    </contour>
    <contour>
      <point x="377" y="645" type="line"/>
      <point x="302" y="636"/>
      <point x="202" y="594"/>
      <point x="202" y="501" type="curve" smooth="yes"/>
      <point x="202" y="456"/>
      <point x="238" y="422"/>
      <point x="323" y="391" type="curve"/>
    </contour>
    <contour>
      <point x="282" y="39" type="line"/>
      <point x="370" y="54"/>
      <point x="485" y="104"/>
      <point x="485" y="213" type="curve" smooth="yes"/>
      <point x="485" y="283"/>
      <point x="417" y="313"/>
      <point x="346" y="340" type="curve"/>
    </contour>
  </outline>
</glyph>
<glyph name="quotesingle" format="1">
  <advance width="178"/>
  <unicode hex="0027"/>
  <outline>
    <contour>
      <point x="167" y="530" type="line"/>
      <point x="130" y="523" type="line"/>
      <point x="165" y="688" type="line"/>
      <point x="202" y="696" type="line"/>
    </contour>
  </outline>
</glyph>
<glyph name="asterisk" format="1">
  <advance width="407"/>
  <unicode hex="002A"/>
  <outline>
    <contour>
      <point x="265" y="578" type="curve"/>
      <point x="266" y="596"/>
      <point x="265" y="628"/>
      <point x="269" y="644" type="curve" smooth="yes"/>
      <point x="284" y="713" type="line"/>
      <point x="319" y="713" type="line"/>
      <point x="304" y="644" type="line" smooth="yes"/>
      <point x="300" y="628"/>
      <point x="284" y="591"/>
      <point x="281" y="579" type="curve"/>
      <point x="299" y="588"/>
      <point x="330" y="604"/>
      <point x="347" y="609" type="curve" smooth="yes"/>
      <point x="416" y="630" type="line"/>
      <point x="419" y="597" type="line"/>
      <point x="349" y="576" type="line" smooth="yes"/>
      <point x="334" y="571"/>
      <point x="295" y="567"/>
      <point x="282" y="564" type="curve"/>
      <point x="294" y="551"/>
      <point x="312" y="530"/>
      <point x="319" y="517" type="curve" smooth="yes"/>
      <point x="347" y="461" type="line"/>
      <point x="314" y="440" type="line"/>
      <point x="286" y="497" type="line"/>
      <point x="281" y="510"/>
      <point x="272" y="544"/>
      <point x="268" y="555" type="curve"/>
      <point x="257" y="538"/>
      <point x="237" y="508"/>
      <point x="225" y="495" type="curve" smooth="yes"/>
      <point x="173" y="440" type="line"/>
      <point x="148" y="461" type="line"/>
      <point x="202" y="516" type="line" smooth="yes"/>
      <point x="215" y="529"/>
      <point x="247" y="555"/>
      <point x="257" y="563" type="curve"/>
      <point x="240" y="566"/>
      <point x="208" y="569"/>
      <point x="195" y="575" type="curve"/>
      <point x="133" y="596" type="line"/>
      <point x="152" y="629" type="line"/>
      <point x="213" y="607" type="line" smooth="yes"/>
      <point x="226" y="602"/>
      <point x="255" y="583"/>
    </contour>
  </outline>
</glyph>
<glyph name="hyphen" format="1">
  <advance width="432"/>
  <unicode hex="002D"/>
  <outline>
    <contour>
      <point x="353" y="232" type="line"/>
      <point x="71" y="232" type="line"/>
      <point x="85" y="268" type="line"/>
      <point x="367" y="268" type="line"/>
    </contour>
  </outline>
</glyph>
<glyph name="slash" format="1">
  <advance width="482"/>
  <unicode hex="002F"/>
  <outline>
    <contour>
      <point x="513" y="700" type="line"/>
      <point x="553" y="700" type="line"/>
      <point x="20" y="0" type="line"/>
      <point x="-19" y="0" type="line"/>
    </contour>
  </outline>
</glyph>
<glyph name="one" format="1">
  <advance width="404"/>
  <unicode hex="0031"/>
  <outline>
    <contour>
      <point x="193" y="35" type="line"/>
      <point x="293" y="35" type="line"/>
      <point x="278" y="0" type="line"/>
      <point x="26" y="0" type="line"/>
      <point x="41" y="35" type="line"/>
      <point x="157" y="35" type="line"/>
      <point x="286" y="595" type="line"/>
      <point x="140" y="484" type="line"/>
      <point x="123" y="511" type="line"/>
      <point x="339" y="676" type="line"/>
    </contour>
  </outline>
</glyph>
<glyph name="three" format="1">
  <advance width="539"/>
  <unicode hex="0033"/>
  <outline>
    <contour>
      <point x="356" y="390" type="curve"/>
      <point x="437" y="362"/>
      <point x="472" y="317"/>
      <point x="472" y="251" type="curve" smooth="yes"/>
      <point x="472" y="63"/>
      <point x="300" y="-4"/>
      <point x="219" y="-4" type="curve" smooth="yes"/>
      <point x="136" y="-4"/>
      <point x="57" y="35"/>
      <point x="43" y="121" type="curve"/>
      <point x="79" y="136" type="line"/>
      <point x="92" y="74"/>
      <point x="152" y="31"/>
      <point x="226" y="31" type="curve" smooth="yes"/>
      <point x="334" y="31"/>
      <point x="432" y="127"/>
      <point x="432" y="240" type="curve" smooth="yes"/>
      <point x="432" y="332"/>
      <point x="350" y="363"/>
      <point x="254" y="367" type="curve"/>
      <point x="260" y="403" type="line"/>
      <point x="387" y="415"/>
      <point x="486" y="482"/>
      <point x="486" y="562" type="curve" smooth="yes"/>
      <point x="486" y="609"/>
      <point x="439" y="655"/>
      <point x="352" y="655" type="curve" smooth="yes"/>
      <point x="283" y="655"/>
      <point x="221" y="616"/>
      <point x="195" y="597" type="curve"/>
      <point x="175" y="623" type="line"/>
      <point x="206" y="646"/>
      <point x="276" y="691"/>
      <point x="359" y="691" type="curve" smooth="yes"/>
      <point x="457" y="691"/>
      <point x="525" y="639"/>
      <point x="525" y="570" type="curve" smooth="yes"/>
      <point x="525" y="482"/>
      <point x="444" y="417"/>
    </contour>
  </outline>
</glyph>
<glyph name="six" format="1">
  <advance width="536"/>
  <unicode hex="0036"/>
  <outline>
    <contour>
      <point x="440" y="687" type="curve"/>
      <point x="445" y="656" type="line"/>
      <point x="339" y="612"/>
      <point x="211" y="506"/>
      <point x="141" y="382" type="curve"/>
      <point x="197" y="412"/>
      <point x="265" y="440"/>
      <point x="328" y="440" type="curve" smooth="yes"/>
      <point x="346" y="440"/>
      <point x="481" y="434"/>
      <point x="481" y="296" type="curve" smooth="yes"/>
      <point x="481" y="161"/>
      <point x="376" y="-5"/>
      <point x="223" y="-5" type="curve" smooth="yes"/>
      <point x="102" y="-5"/>
      <point x="51" y="69"/>
      <point x="51" y="169" type="curve" smooth="yes"/>
      <point x="51" y="394"/>
      <point x="232" y="592"/>
    </contour>
    <contour>
      <point x="115" y="324" type="curve"/>
      <point x="97" y="275"/>
      <point x="85" y="209"/>
      <point x="85" y="169" type="curve" smooth="yes"/>
      <point x="85" y="56"/>
      <point x="160" y="29"/>
      <point x="231" y="29" type="curve" smooth="yes"/>
      <point x="356" y="29"/>
      <point x="447" y="171"/>
      <point x="447" y="289" type="curve" smooth="yes"/>
      <point x="447" y="395"/>
      <point x="353" y="405"/>
      <point x="321" y="405" type="curve" smooth="yes"/>
      <point x="220" y="405"/>
      <point x="139" y="347"/>
    </contour>
  </outline>
</glyph>
<glyph name="colon" format="1">
  <advance width="240"/>
  <unicode hex="003A"/>
  <outline>
    <contour>
      <point x="204" y="442" type="line"/>
      <point x="185" y="377" type="line"/>
      <point x="128" y="369" type="line"/>
      <point x="148" y="433" type="line"/>
    </contour>
    <contour>
      <point x="98" y="74" type="line"/>
      <point x="77" y="9" type="line"/>
      <point x="22" y="1" type="line"/>
      <point x="42" y="66" type="line"/>
    </contour>
  </outline>
</glyph>
<glyph name="less" format="1">
  <advance width="558"/>
  <unicode hex="003C"/>
  <outline>
    <contour>
      <point x="397" y="2" type="line"/>
      <point x="81" y="251" type="line"/>
      <point x="520" y="500" type="line"/>
      <point x="535" y="471" type="line"/>
      <point x="145" y="250" type="line"/>
      <point x="422" y="31" type="line"/>
    </contour>
  </outline>
</glyph>
<glyph name="equal" format="1">
  <advance width="495"/>
  <unicode hex="003D"/>
  <outline>
    <contour>
      <point x="429" y="311" type="line"/>
      <point x="93" y="311" type="line"/>
      <point x="108" y="347" type="line"/>
      <point x="443" y="347" type="line"/>
    </contour>
    <contour>
      <point x="395" y="152" type="line"/>
      <point x="59" y="152" type="line"/>
      <point x="74" y="186" type="line"/>
      <point x="409" y="186" type="line"/>
    </contour>
  </outline>
</glyph>
<glyph name="greater" format="1">
  <advance width="558"/>
  <unicode hex="003E"/>
  <outline>
    <contour>
      <point x="48" y="2" type="line"/>
      <point x="33" y="31" type="line"/>
      <point x="422" y="252" type="line"/>
      <point x="147" y="472" type="line"/>
      <point x="170" y="500" type="line"/>
      <point x="487" y="251" type="line"/>
    </contour>
  </outline>
</glyph>
<glyph name="E" format="1">
  <advance width="601"/>
  <unicode hex="0045"/>
  <outline>
    <contour>
      <point x="57" y="37" type="line"/>
      <point x="497" y="37" type="line"/>
      <point x="475" y="0" type="line"/>
      <point x="13" y="0" type="line"/>
      <point x="157" y="681" type="line"/>
      <point x="630" y="681" type="line"/>
      <point x="614" y="644" type="line"/>
      <point x="186" y="644" type="line"/>
      <point x="129" y="373" type="line"/>
      <point x="521" y="373" type="line"/>
      <point x="502" y="336" type="line"/>
      <point x="121" y="336" type="line"/>
    </contour>
  </outline>
</glyph>
<glyph name="F" format="1">
  <advance width="495"/>
  <unicode hex="0046"/>
  <outline>
    <contour>
      <point x="572" y="644" type="line"/>
      <point x="181" y="644" type="line"/>
      <point x="122" y="365" type="line"/>
      <point x="468" y="365" type="line"/>
      <point x="453" y="327" type="line"/>
      <point x="114" y="327" type="line"/>
      <point x="46" y="9" type="line"/>
      <point x="8" y="2" type="line"/>
      <point x="152" y="681" type="line"/>
      <point x="588" y="681" type="line"/>
    </contour>
  </outline>
</glyph>
<glyph name="I" format="1">
  <advance width="427"/>
  <unicode hex="0049"/>
  <outline>
    <contour>
      <point x="442" y="644" type="line"/>
      <point x="319" y="644" type="line"/>
      <point x="190" y="37" type="line"/>
      <point x="320" y="37" type="line"/>
      <point x="306" y="0" type="line"/>
      <point x="11" y="0" type="line"/>
      <point x="25" y="37" type="line"/>
      <point x="153" y="37" type="line"/>
      <point x="282" y="644" type="line"/>
      <point x="147" y="644" type="line"/>
      <point x="162" y="681" type="line"/>
      <point x="457" y="681" type="line"/>
    </contour>
  </outline>
</glyph>
<glyph name="P" format="1">
  <advance width="535"/>
  <unicode hex="0050"/>
  <outline>
    <contour>
      <point x="101" y="245" type="curve"/>
      <point x="50" y="9" type="line"/>
      <point x="13" y="2" type="line"/>
      <point x="156" y="675" type="line"/>
      <point x="180" y="677"/>
      <point x="227" y="679"/>
      <point x="262" y="679" type="curve" smooth="yes"/>
      <point x="389" y="679"/>
      <point x="561" y="655"/>
      <point x="561" y="517" type="curve" smooth="yes"/>
      <point x="561" y="323"/>
      <point x="295" y="251"/>
    </contour>
    <contour>
      <point x="185" y="642" type="line"/>
      <point x="108" y="281" type="line"/>
      <point x="373" y="292"/>
      <point x="523" y="388"/>
      <point x="523" y="507" type="curve" smooth="yes"/>
      <point x="523" y="584"/>
      <point x="458" y="642"/>
      <point x="243" y="642" type="curve" smooth="yes"/>
    </contour>
  </outline>
</glyph>
<glyph name="T" format="1">
  <advance width="512"/>
  <unicode hex="0054"/>
  <outline>
    <contour>
      <point x="178" y="2" type="line"/>
      <point x="314" y="644" type="line"/>
      <point x="92" y="644" type="line"/>
      <point x="100" y="681" type="line"/>
      <point x="598" y="681" type="line"/>
      <point x="590" y="644" type="line"/>
      <point x="352" y="644" type="line"/>
      <point x="217" y="9" type="line"/>
    </contour>
  </outline>
</glyph>
<glyph name="W" format="1">
  <advance width="868"/>
  <unicode hex="0057"/>
  <outline>
    <contour>
      <point x="957" y="678" type="line"/>
      <point x="588" y="10" type="line"/>
      <point x="537" y="1" type="line"/>
      <point x="514" y="626" type="line"/>
      <point x="198" y="10" type="line"/>
      <point x="155" y="1" type="line"/>
      <point x="100" y="673" type="line"/>
      <point x="136" y="680" type="line"/>
      <point x="186" y="55" type="line"/>
      <point x="501" y="671" type="line"/>
      <point x="548" y="680" type="line"/>
      <point x="571" y="48" type="line"/>
      <point x="914" y="670" type="line"/>
    </contour>
  </outline>
</glyph>
<glyph name="bracketleft" format="1">
  <advance width="305"/>
  <unicode hex="005B"/>
  <outline>
    <contour>
      <point x="143" y="-129" type="line"/>
      <point x="-12" y="-129" type="line"/>
      <point x="189" y="818" type="line"/>
      <point x="367" y="818" type="line"/>
      <point x="353" y="782" type="line"/>
      <point x="217" y="782" type="line"/>
      <point x="31" y="-94" type="line"/>
      <point x="158" y="-94" type="line"/>
    </contour>
  </outline>
</glyph>
<glyph name="backslash" format="1">
  <advance width="482"/>
  <unicode hex="005C"/>
  <outline>
    <contour>
      <point x="168" y="701" type="line"/>
      <point x="404" y="0" type="line"/>
      <point x="364" y="0" type="line"/>
      <point x="129" y="701" type="line"/>
    </contour>
  </outline>
</glyph>
<glyph name="underscore" format="1">
  <advance width="466"/>
  <unicode hex="005F"/>
  <outline>
    <contour>
      <point x="406" y="-56" type="line"/>
      <point x="-82" y="-56" type="line"/>
      <point x="-68" y="-21" type="line"/>
      <point x="420" y="-21" type="line"/>
    </contour>
  </outline>
</glyph>
<glyph name="grave" format="1">
  <advance width="490"/>
  <unicode hex="0060"/>
  <outline>
    <contour>
      <point x="440" y="778" type="line"/>
      <point x="406" y="758" type="line"/>
      <point x="304" y="888" type="line"/>
      <point x="352" y="913" type="line"/>
    </contour>
  </outline>
</glyph>
<glyph name="a" format="1">
  <advance width="494"/>
  <unicode hex="0061"/>
  <outline>
    <contour>
      <point x="482" y="475" type="curve"/>
      <point x="384" y="10" type="line"/>
      <point x="344" y="2" type="line"/>
      <point x="357" y="65" type="line"/>
      <point x="310" y="39"/>
      <point x="239" y="7"/>
      <point x="184" y="7" type="curve" smooth="yes"/>
      <point x="94" y="7"/>
      <point x="37" y="69"/>
      <point x="37" y="164" type="curve" smooth="yes"/>
      <point x="37" y="309"/>
      <point x="166" y="513"/>
      <point x="343" y="513" type="curve" smooth="yes"/>
      <point x="396" y="513"/>
      <point x="442" y="497"/>
    </contour>
    <contour>
      <point x="190" y="44" type="curve" smooth="yes"/>
      <point x="255" y="44"/>
      <point x="336" y="91"/>
      <point x="365" y="109" type="curve"/>
      <point x="442" y="450" type="line"/>
      <point x="420" y="459"/>
      <point x="375" y="477"/>
      <point x="340" y="477" type="curve" smooth="yes"/>
      <point x="147" y="477"/>
      <point x="77" y="235"/>
      <point x="77" y="171" type="curve" smooth="yes"/>
      <point x="77" y="106"/>
      <point x="106" y="45"/>
    </contour>
  </outline>
</glyph>
<glyph name="c" format="1">
  <advance width="497"/>
  <unicode hex="0063"/>
  <outline>
    <contour>
      <point x="230" y="33" type="curve"/>
      <point x="294" y="36"/>
      <point x="356" y="67"/>
      <point x="396" y="115" type="curve"/>
      <point x="416" y="90" type="line"/>
      <point x="365" y="32"/>
      <point x="291" y="0"/>
      <point x="213" y="0" type="curve" smooth="yes"/>
      <point x="114" y="0"/>
      <point x="38" y="73"/>
      <point x="38" y="172" type="curve" smooth="yes"/>
      <point x="38" y="277"/>
      <point x="168" y="502"/>
      <point x="326" y="502" type="curve" smooth="yes"/>
      <point x="384" y="502"/>
      <point x="432" y="478"/>
      <point x="458" y="438" type="curve"/>
      <point x="426" y="413" type="line"/>
      <point x="407" y="450"/>
      <point x="369" y="469"/>
      <point x="321" y="469" type="curve" smooth="yes"/>
      <point x="183" y="469"/>
      <point x="73" y="257"/>
      <point x="73" y="169" type="curve" smooth="yes"/>
      <point x="73" y="53"/>
      <point x="182" y="33"/>
    </contour>
  </outline>
</glyph>
<glyph name="f" format="1">
  <advance width="322"/>
  <unicode hex="0066"/>
  <outline>
    <contour>
      <point x="407" y="702" type="line"/>
      <point x="382" y="667" type="line"/>
      <point x="257" y="667"/>
      <point x="220" y="622"/>
      <point x="195" y="502" type="curve"/>
      <point x="328" y="502" type="line"/>
      <point x="314" y="470" type="line"/>
      <point x="183" y="470" type="line"/>
      <point x="85" y="9" type="line"/>
      <point x="46" y="2" type="line"/>
      <point x="145" y="470" type="line"/>
      <point x="59" y="470" type="line"/>
      <point x="72" y="502" type="line"/>
      <point x="152" y="502" type="line"/>
      <point x="183" y="649"/>
      <point x="257" y="702"/>
      <point x="389" y="702" type="curve" smooth="yes"/>
    </contour>
  </outline>
</glyph>
<glyph name="i" format="1">
  <advance width="183"/>
  <unicode hex="0069"/>
  <outline>
    <contour>
      <point x="120" y="493" type="line"/>
      <point x="162" y="498" type="line"/>
      <point x="58" y="9" type="line"/>
      <point x="16" y="2" type="line"/>
    </contour>
    <contour>
      <point x="207" y="695" type="line"/>
      <point x="190" y="631" type="line"/>
      <point x="149" y="624" type="line"/>
      <point x="162" y="687" type="line"/>
    </contour>
  </outline>
</glyph>
<glyph name="j" format="1">
  <advance width="303"/>
  <unicode hex="006A"/>
  <outline>
    <contour>
      <point x="333" y="703" type="line"/>
      <point x="312" y="639" type="line"/>
      <point x="275" y="632" type="line"/>
      <point x="292" y="696" type="line"/>
    </contour>
    <contour>
      <point x="-94" y="-28" type="curve"/>
      <point x="-56" y="-21" type="line"/>
      <point x="-46" y="-67"/>
      <point x="-18" y="-155"/>
      <point x="36" y="-155" type="curve" smooth="yes"/>
      <point x="90" y="-155"/>
      <point x="127" y="-92"/>
      <point x="143" y="-16" type="curve" smooth="yes"/>
      <point x="147" y="2"/>
      <point x="193" y="231"/>
      <point x="246" y="503" type="curve"/>
      <point x="286" y="511" type="line"/>
      <point x="232" y="234"/>
      <point x="187" y="7"/>
      <point x="183" y="-10" type="curve" smooth="yes"/>
      <point x="168" y="-81"/>
      <point x="124" y="-187"/>
      <point x="34" y="-187" type="curve" smooth="yes"/>
      <point x="-51" y="-187"/>
      <point x="-88" y="-66"/>
    </contour>
  </outline>
</glyph>
<glyph name="n" format="1">
  <advance width="526"/>
  <unicode hex="006E"/>
  <outline>
    <contour>
      <point x="156" y="500" type="line"/>
      <point x="109" y="282" type="line"/>
      <point x="155" y="383"/>
      <point x="268" y="501"/>
      <point x="378" y="501" type="curve" smooth="yes"/>
      <point x="443" y="501"/>
      <point x="477" y="465"/>
      <point x="481" y="397" type="curve"/>
      <point x="480" y="333"/>
      <point x="465" y="244"/>
      <point x="437" y="109" type="curve" smooth="yes"/>
      <point x="416" y="10" type="line"/>
      <point x="378" y="3" type="line"/>
      <point x="408" y="144" type="line" smooth="yes"/>
      <point x="428" y="240"/>
      <point x="444" y="323"/>
      <point x="444" y="377" type="curve" smooth="yes"/>
      <point x="444" y="441"/>
      <point x="422" y="467"/>
      <point x="368" y="467" type="curve" smooth="yes"/>
      <point x="318" y="467"/>
      <point x="257" y="445"/>
      <point x="176" y="337" type="curve" smooth="yes"/>
      <point x="127" y="272"/>
      <point x="92" y="202"/>
      <point x="76" y="126" type="curve" smooth="yes"/>
      <point x="51" y="10" type="line"/>
      <point x="13" y="2" type="line"/>
      <point x="117" y="493" type="line"/>
    </contour>
  </outline>
</glyph>
<glyph name="q" format="1">
  <advance width="513"/>
  <unicode hex="0071"/>
  <outline>
    <contour>
      <point x="296" y="-202" type="line"/>
      <point x="359" y="56" type="line"/>
      <point x="315" y="6"/>
      <point x="267" y="-9"/>
      <point x="198" y="-9" type="curve" smooth="yes"/>
      <point x="98" y="-9"/>
      <point x="35" y="60"/>
      <point x="35" y="156" type="curve" smooth="yes"/>
      <point x="35" y="332"/>
      <point x="191" y="496"/>
      <point x="380" y="496" type="curve" smooth="yes"/>
      <point x="402" y="496"/>
      <point x="431" y="493"/>
      <point x="467" y="487" type="curve"/>
      <point x="472" y="508" type="line"/>
      <point x="507" y="508" type="line"/>
      <point x="335" y="-195" type="line"/>
    </contour>
    <contour>
      <point x="386" y="159" type="curve" smooth="yes"/>
      <point x="459" y="454" type="line"/>
      <point x="431" y="459"/>
      <point x="395" y="463"/>
      <point x="373" y="463" type="curve" smooth="yes"/>
      <point x="225" y="463"/>
      <point x="68" y="327"/>
      <point x="68" y="160" type="curve" smooth="yes"/>
      <point x="68" y="77"/>
      <point x="121" y="23"/>
      <point x="205" y="23" type="curve" smooth="yes"/>
      <point x="295" y="23"/>
      <point x="364" y="72"/>
    </contour>
  </outline>
</glyph>
<glyph name="v" format="1">
  <advance width="437"/>
  <unicode hex="0076"/>
  <outline>
    <contour>
      <point x="479" y="483" type="line"/>
      <point x="196" y="11" type="line"/>
      <point x="147" y="2" type="line"/>
      <point x="60" y="483" type="line"/>
      <point x="100" y="497" type="line"/>
      <point x="176" y="41" type="line"/>
      <point x="448" y="498" type="line"/>
    </contour>
  </outline>
</glyph>
<glyph name="x" format="1">
  <advance width="500"/>
  <unicode hex="0078"/>
  <outline>
    <contour>
      <point x="257" y="236" type="line"/>
      <point x="-12" y="6" type="line"/>
      <point x="-33" y="33" type="line"/>
      <point x="237" y="260" type="line"/>
      <point x="101" y="474" type="line"/>
      <point x="136" y="497" type="line"/>
      <point x="267" y="282" type="line"/>
      <point x="519" y="497" type="line"/>
      <point x="541" y="471" type="line"/>
      <point x="288" y="257" type="line"/>
      <point x="430" y="28" type="line"/>
      <point x="398" y="5" type="line"/>
    </contour>
  </outline>
</glyph>
<glyph name="y" format="1">
  <advance width="490"/>
  <unicode hex="0079"/>
  <outline>
    <contour>
      <point x="492" y="497" type="line"/>
      <point x="523" y="480" type="line"/>
      <point x="62" y="-202" type="line"/>
      <point x="30" y="-185" type="line"/>
      <point x="193" y="53" type="line"/>
      <point x="70" y="479" type="line"/>
      <point x="109" y="496" type="line"/>
      <point x="221" y="98" type="line"/>
    </contour>
  </outline>
</glyph>
<glyph name="z" format="1">
  <advance width="443"/>
  <unicode hex="007A"/>
  <outline>
    <contour>
      <point x="349" y="0" type="line"/>
      <point x="-4" y="0" type="line"/>
      <point x="-15" y="35" type="line"/>
      <point x="418" y="465" type="line"/>
      <point x="100" y="465" type="line"/>
      <point x="116" y="502" type="line"/>
      <point x="453" y="502" type="line"/>
      <point x="464" y="468" type="line"/>
      <point x="30" y="37" type="line"/>
      <point x="363" y="37" type="line"/>
    </contour>
  </outline>
</glyph>
<glyph name="bar" format="1">
  <advance width="245"/>
  <unicode hex="007C"/>
  <outline>
    <contour>
      <point x="74" y="-65" type="line"/>
      <point x="37" y="-72" type="line"/>
      <point x="213" y="756" type="line"/>
      <point x="250" y="763" type="line"/>
    </contour>
  </outline>
</glyph>
<glyph name="braceright" format="1">
  <advance width="364"/>
  <unicode hex="007D"/>
  <outline>
    <contour>
      <point x="316" y="356" type="curve"/>
      <point x="309" y="322" type="line"/>
      <point x="259" y="304"/>
      <point x="219" y="265"/>
      <point x="208" y="211" type="curve" smooth="yes"/>
      <point x="166" y="14" type="line" smooth="yes"/>
      <point x="144" y="-88"/>
      <point x="39" y="-125"/>
      <point x="-24" y="-130" type="curve"/>
      <point x="-14" y="-94" type="line"/>
      <point x="57" y="-89"/>
      <point x="116" y="-50"/>
      <point x="130" y="14" type="curve" smooth="yes"/>
      <point x="172" y="210" type="line" smooth="yes"/>
      <point x="179" y="241"/>
      <point x="200" y="293"/>
      <point x="268" y="339" type="curve"/>
      <point x="242" y="361"/>
      <point x="223" y="395"/>
      <point x="223" y="437" type="curve" smooth="yes"/>
      <point x="223" y="447"/>
      <point x="225" y="457"/>
      <point x="227" y="468" type="curve" smooth="yes"/>
      <point x="272" y="679" type="line" smooth="yes"/>
      <point x="274" y="687"/>
      <point x="274" y="695"/>
      <point x="274" y="702" type="curve" smooth="yes"/>
      <point x="274" y="748"/>
      <point x="241" y="778"/>
      <point x="170" y="787" type="curve"/>
      <point x="179" y="823" type="line"/>
      <point x="233" y="819"/>
      <point x="311" y="792"/>
      <point x="311" y="710" type="curve" smooth="yes"/>
      <point x="311" y="700"/>
      <point x="310" y="690"/>
      <point x="308" y="679" type="curve" smooth="yes"/>
      <point x="261" y="460" type="line" smooth="yes"/>
      <point x="259" y="453"/>
      <point x="259" y="445"/>
      <point x="259" y="439" type="curve" smooth="yes"/>
      <point x="259" y="401"/>
      <point x="281" y="369"/>
    </contour>
  </outline>
</glyph>
<glyph name="sterling" format="1">
  <advance width="754"/>
  <unicode hex="00A3"/>
  <outline>
    <contour>
      <point x="633" y="140" type="curve"/>
      <point x="667" y="134" type="line"/>
      <point x="618" y="15"/>
      <point x="526" y="-10"/>
      <point x="484" y="-10" type="curve" smooth="yes"/>
      <point x="434" y="-10"/>
      <point x="379" y="13"/>
      <point x="334" y="50" type="curve" smooth="yes"/>
      <point x="315" y="66"/>
      <point x="296" y="74"/>
      <point x="269" y="74" type="curve" smooth="yes"/>
      <point x="244" y="74"/>
      <point x="176" y="57"/>
      <point x="108" y="5" type="curve"/>
      <point x="90" y="30" type="line"/>
      <point x="178" y="99"/>
      <point x="223" y="159"/>
      <point x="223" y="276" type="curve" smooth="yes"/>
      <point x="223" y="294"/>
      <point x="222" y="316"/>
      <point x="220" y="342" type="curve"/>
      <point x="93" y="342" type="line"/>
      <point x="107" y="376" type="line"/>
      <point x="218" y="376" type="line"/>
      <point x="218" y="606"/>
      <point x="329" y="735"/>
      <point x="516" y="735" type="curve" smooth="yes"/>
      <point x="665" y="735"/>
      <point x="698" y="634"/>
      <point x="698" y="561" type="curve" smooth="yes"/>
      <point x="698" y="553"/>
      <point x="698" y="545"/>
      <point x="697" y="538" type="curve"/>
      <point x="661" y="534" type="line"/>
      <point x="661" y="538"/>
      <point x="661" y="542"/>
      <point x="661" y="547" type="curve" smooth="yes"/>
      <point x="661" y="639"/>
      <point x="618" y="700"/>
      <point x="503" y="700" type="curve" smooth="yes"/>
      <point x="347" y="700"/>
      <point x="256" y="597"/>
      <point x="252" y="376" type="curve"/>
      <point x="520" y="376" type="line"/>
      <point x="506" y="342" type="line"/>
      <point x="252" y="342" type="line"/>
      <point x="254" y="307"/>
      <point x="255" y="280"/>
      <point x="255" y="259" type="curve" smooth="yes"/>
      <point x="255" y="191"/>
      <point x="240" y="153"/>
      <point x="200" y="93" type="curve"/>
      <point x="237" y="105"/>
      <point x="260" y="109"/>
      <point x="277" y="109" type="curve" smooth="yes"/>
      <point x="314" y="109"/>
      <point x="336" y="95"/>
      <point x="361" y="77" type="curve" smooth="yes"/>
      <point x="402" y="47"/>
      <point x="446" y="25"/>
      <point x="490" y="25" type="curve" smooth="yes"/>
      <point x="556" y="25"/>
      <point x="598" y="64"/>
    </contour>
  </outline>
</glyph>
<glyph name="currency" format="1">
  <advance width="490"/>
  <unicode hex="00A4"/>
  <outline>
    <contour>
      <point x="406" y="283" type="curve" smooth="yes"/>
      <point x="406" y="235"/>
      <point x="383" y="191"/>
      <point x="349" y="154" type="curve"/>
      <point x="406" y="82" type="line"/>
      <point x="378" y="59" type="line"/>
      <point x="321" y="130" type="line"/>
      <point x="286" y="108"/>
      <point x="249" y="95"/>
      <point x="215" y="95" type="curve" smooth="yes"/>
      <point x="180" y="95"/>
      <point x="147" y="108"/>
      <point x="122" y="130" type="curve"/>
      <point x="35" y="58" type="line"/>
      <point x="17" y="81" type="line"/>
      <point x="105" y="154" type="line"/>
      <point x="94" y="175"/>
      <point x="89" y="198"/>
      <point x="89" y="221" type="curve" smooth="yes"/>
      <point x="89" y="265"/>
      <point x="112" y="310"/>
      <point x="148" y="350" type="curve"/>
      <point x="90" y="425" type="line"/>
      <point x="118" y="448" type="line"/>
      <point x="177" y="373" type="line"/>
      <point x="212" y="395"/>
      <point x="248" y="406"/>
      <point x="281" y="406" type="curve" smooth="yes"/>
      <point x="315" y="406"/>
      <point x="345" y="395"/>
      <point x="371" y="373" type="curve"/>
      <point x="461" y="448" type="line"/>
      <point x="479" y="425" type="line"/>
      <point x="389" y="350" type="line"/>
      <point x="401" y="329"/>
      <point x="406" y="306"/>
    </contour>
    <contour>
      <point x="221" y="127" type="curve" smooth="yes"/>
      <point x="298" y="127"/>
      <point x="374" y="197"/>
      <point x="374" y="278" type="curve" smooth="yes"/>
      <point x="374" y="334"/>
      <point x="334" y="374"/>
      <point x="274" y="374" type="curve" smooth="yes"/>
      <point x="197" y="374"/>
      <point x="121" y="305"/>
      <point x="121" y="224" type="curve" smooth="yes"/>
      <point x="121" y="168"/>
      <point x="161" y="127"/>
    </contour>
  </outline>
</glyph>
<glyph name="yen" format="1">
  <advance width="575"/>
  <unicode hex="00A5"/>
  <outline>
    <contour>
      <point x="275" y="300" type="line"/>
      <point x="121" y="300" type="line"/>
      <point x="135" y="334" type="line"/>
      <point x="258" y="334" type="line"/>
      <point x="164" y="697" type="line"/>
      <point x="204" y="697" type="line"/>
      <point x="300" y="328" type="line"/>
      <point x="564" y="697" type="line"/>
      <point x="604" y="697" type="line"/>
      <point x="342" y="334" type="line"/>
      <point x="471" y="334" type="line"/>
      <point x="456" y="300" type="line"/>
      <point x="310" y="300" type="line"/>
      <point x="284" y="175" type="line"/>
      <point x="438" y="175" type="line"/>
      <point x="422" y="140" type="line"/>
      <point x="276" y="140" type="line"/>
      <point x="248" y="9" type="line"/>
      <point x="212" y="2" type="line"/>
      <point x="241" y="140" type="line"/>
      <point x="87" y="140" type="line"/>
      <point x="102" y="175" type="line"/>
      <point x="249" y="175" type="line"/>
    </contour>
  </outline>
</glyph>
<glyph name="section" format="1">
  <advance width="465"/>
  <unicode hex="00A7"/>
  <outline>
    <contour>
      <point x="467" y="530" type="curve"/>
      <point x="432" y="534" type="line"/>
      <point x="435" y="539"/>
      <point x="437" y="553"/>
      <point x="437" y="560" type="curve" smooth="yes"/>
      <point x="437" y="595"/>
      <point x="407" y="619"/>
      <point x="338" y="619" type="curve" smooth="yes"/>
      <point x="250" y="619"/>
      <point x="181" y="581"/>
      <point x="181" y="518" type="curve" smooth="yes"/>
      <point x="181" y="464"/>
      <point x="243" y="446"/>
      <point x="281" y="433" type="curve" smooth="yes"/>
      <point x="357" y="407"/>
      <point x="417" y="386"/>
      <point x="417" y="317" type="curve" smooth="yes"/>
      <point x="417" y="288"/>
      <point x="410" y="255"/>
      <point x="376" y="217" type="curve"/>
      <point x="382" y="202"/>
      <point x="386" y="186"/>
      <point x="386" y="168" type="curve" smooth="yes"/>
      <point x="386" y="98"/>
      <point x="314" y="0"/>
      <point x="187" y="0" type="curve" smooth="yes"/>
      <point x="80" y="0"/>
      <point x="37" y="75"/>
      <point x="33" y="115" type="curve"/>
      <point x="70" y="121" type="line"/>
      <point x="81" y="65"/>
      <point x="125" y="34"/>
      <point x="194" y="34" type="curve" smooth="yes"/>
      <point x="346" y="34"/>
      <point x="352" y="163"/>
      <point x="352" y="163" type="curve" smooth="yes"/>
      <point x="352" y="200"/>
      <point x="327" y="224"/>
      <point x="243" y="251" type="curve" smooth="yes"/>
      <point x="157" y="278"/>
      <point x="117" y="309"/>
      <point x="117" y="362" type="curve" smooth="yes"/>
      <point x="117" y="402"/>
      <point x="137" y="434"/>
      <point x="164" y="460" type="curve"/>
      <point x="154" y="477"/>
      <point x="148" y="495"/>
      <point x="148" y="515" type="curve" smooth="yes"/>
      <point x="148" y="623"/>
      <point x="272" y="650"/>
      <point x="342" y="650" type="curve" smooth="yes"/>
      <point x="433" y="650"/>
      <point x="473" y="612"/>
      <point x="473" y="563" type="curve" smooth="yes"/>
      <point x="473" y="553"/>
      <point x="471" y="540"/>
    </contour>
    <contour>
      <point x="355" y="239" type="curve"/>
      <point x="381" y="263"/>
      <point x="382" y="302"/>
      <point x="382" y="313" type="curve" smooth="yes"/>
      <point x="382" y="349"/>
      <point x="357" y="373"/>
      <point x="274" y="400" type="curve" smooth="yes"/>
      <point x="241" y="411"/>
      <point x="212" y="424"/>
      <point x="188" y="440" type="curve"/>
      <point x="163" y="417"/>
      <point x="152" y="394"/>
      <point x="152" y="369" type="curve" smooth="yes"/>
      <point x="152" y="317"/>
      <point x="211" y="296"/>
      <point x="250" y="284" type="curve" smooth="yes"/>
      <point x="287" y="272"/>
      <point x="332" y="254"/>
    </contour>
  </outline>
</glyph>
<glyph name="dieresis" format="1">
  <advance width="490"/>
  <unicode hex="00A8"/>
  <outline>
    <contour>
      <point x="285" y="669" type="line"/>
      <point x="264" y="604" type="line"/>
      <point x="208" y="596" type="line"/>
      <point x="228" y="660" type="line"/>
    </contour>
    <contour>
      <point x="452" y="669" type="line"/>
      <point x="430" y="604" type="line"/>
      <point x="374" y="596" type="line"/>
      <point x="395" y="660" type="line"/>
    </contour>
  </outline>
</glyph>
<glyph name="copyright" format="1">
  <advance width="566"/>
  <unicode hex="00A9"/>
  <outline>
    <contour>
      <point x="286" y="246" type="curve" smooth="yes"/>
      <point x="180" y="246"/>
      <point x="108" y="322"/>
      <point x="108" y="423" type="curve" smooth="yes"/>
      <point x="108" y="568"/>
      <point x="244" y="698"/>
      <point x="382" y="698" type="curve" smooth="yes"/>
      <point x="488" y="698"/>
      <point x="560" y="621"/>
      <point x="560" y="519" type="curve" smooth="yes"/>
      <point x="560" y="375"/>
      <point x="422" y="246"/>
    </contour>
    <contour>
      <point x="376" y="671" type="curve" smooth="yes"/>
      <point x="256" y="671"/>
      <point x="135" y="557"/>
      <point x="135" y="429" type="curve" smooth="yes"/>
      <point x="135" y="339"/>
      <point x="199" y="273"/>
      <point x="292" y="273" type="curve" smooth="yes"/>
      <point x="410" y="273"/>
      <point x="532" y="384"/>
      <point x="532" y="514" type="curve" smooth="yes"/>
      <point x="532" y="604"/>
      <point x="469" y="671"/>
    </contour>
    <contour>
      <point x="302" y="362" type="curve" smooth="yes"/>
      <point x="248" y="362"/>
      <point x="210" y="401"/>
      <point x="210" y="450" type="curve" smooth="yes"/>
      <point x="210" y="537"/>
      <point x="286" y="595"/>
      <point x="363" y="595" type="curve" smooth="yes"/>
      <point x="388" y="595"/>
      <point x="419" y="585"/>
      <point x="439" y="557" type="curve"/>
      <point x="415" y="539" type="line"/>
      <point x="401" y="556"/>
      <point x="377" y="568"/>
      <point x="357" y="568" type="curve" smooth="yes"/>
      <point x="292" y="568"/>
      <point x="239" y="515"/>
      <point x="239" y="453" type="curve" smooth="yes"/>
      <point x="239" y="413"/>
      <point x="272" y="390"/>
      <point x="308" y="390" type="curve" smooth="yes"/>
      <point x="357" y="390"/>
      <point x="388" y="408"/>
      <point x="411" y="444" type="curve"/>
      <point x="436" y="435" type="line"/>
      <point x="405" y="387"/>
      <point x="353" y="362"/>
    </contour>
  </outline>
</glyph>
<glyph name="logicalnot" format="1">
  <advance width="506"/>
  <unicode hex="00AC"/>
  <outline>
    <contour>
      <point x="382" y="123" type="line"/>
      <point x="415" y="276" type="line"/>
      <point x="79" y="276" type="line"/>
      <point x="93" y="308" type="line"/>
      <point x="455" y="308" type="line"/>
      <point x="417" y="134" type="line"/>
    </contour>
  </outline>
</glyph>
<glyph name="uni00AD" format="1">
  <advance width="432"/>
  <unicode hex="00AD"/>
  <outline>
    <contour>
      <point x="368" y="272" type="line"/>
      <point x="354" y="236" type="line"/>
      <point x="72" y="236" type="line"/>
      <point x="86" y="272" type="line"/>
    </contour>
  </outline>
</glyph>
<glyph name="registered" format="1">
  <advance width="566"/>
  <unicode hex="00AE"/>
  <outline>
    <contour>
      <point x="286" y="246" type="curve" smooth="yes"/>
      <point x="180" y="246"/>
      <point x="108" y="322"/>
      <point x="108" y="423" type="curve" smooth="yes"/>
      <point x="108" y="568"/>
      <point x="244" y="698"/>
      <point x="382" y="698" type="curve" smooth="yes"/>
      <point x="488" y="698"/>
      <point x="560" y="621"/>
      <point x="560" y="519" type="curve" smooth="yes"/>
      <point x="560" y="375"/>
      <point x="422" y="246"/>
    </contour>
    <contour>
      <point x="376" y="671" type="curve" smooth="yes"/>
      <point x="256" y="671"/>
      <point x="135" y="557"/>
      <point x="135" y="429" type="curve" smooth="yes"/>
      <point x="135" y="339"/>
      <point x="199" y="273"/>
      <point x="292" y="273" type="curve" smooth="yes"/>
      <point x="410" y="273"/>
      <point x="532" y="384"/>
      <point x="532" y="514" type="curve" smooth="yes"/>
      <point x="532" y="604"/>
      <point x="469" y="671"/>
    </contour>
    <contour>
      <point x="321" y="462" type="curve"/>
      <point x="406" y="393" type="line"/>
      <point x="383" y="373" type="line"/>
      <point x="273" y="462" type="line"/>
      <point x="240" y="380" type="line"/>
      <point x="212" y="376" type="line"/>
      <point x="285" y="573" type="line"/>
      <point x="290" y="584"/>
      <point x="294" y="594"/>
      <point x="361" y="594" type="curve" smooth="yes"/>
      <point x="424" y="594"/>
      <point x="457" y="575"/>
      <point x="457" y="543" type="curve" smooth="yes"/>
      <point x="457" y="497"/>
      <point x="389" y="476"/>
    </contour>
    <contour>
      <point x="309" y="564" type="curve"/>
      <point x="280" y="483" type="line"/>
      <point x="374" y="490"/>
      <point x="429" y="518"/>
      <point x="429" y="535" type="curve" smooth="yes"/>
      <point x="429" y="558"/>
      <point x="387" y="567"/>
      <point x="349" y="567" type="curve" smooth="yes"/>
      <point x="339" y="567"/>
      <point x="329" y="567"/>
    </contour>
  </outline>
</glyph>
<glyph name="macron" format="1">
  <advance width="490"/>
  <unicode hex="00AF"/>
  <outline>
    <contour>
      <point x="441" y="611" type="line"/>
      <point x="200" y="611" type="line"/>
      <point x="216" y="647" type="line"/>
      <point x="456" y="647" type="line"/>
    </contour>
  </outline>
</glyph>
<glyph name="plusminus" format="1">
  <advance width="425"/>
  <unicode hex="00B1"/>
  <outline>
    <contour>
      <point x="18" y="0" type="line"/>
      <point x="32" y="33" type="line"/>
      <point x="311" y="33" type="line"/>
      <point x="297" y="0" type="line"/>
    </contour>
    <contour>
      <point x="387" y="317" type="line"/>
      <point x="370" y="281" type="line"/>
      <point x="238" y="281" type="line"/>
      <point x="210" y="149" type="line"/>
      <point x="174" y="142" type="line"/>
      <point x="203" y="281" type="line"/>
      <point x="63" y="281" type="line"/>
      <point x="79" y="317" type="line"/>
      <point x="211" y="317" type="line"/>
      <point x="238" y="444" type="line"/>
      <point x="275" y="452" type="line"/>
      <point x="246" y="317" type="line"/>
    </contour>
  </outline>
</glyph>
<glyph name="twosuperior" format="1">
  <advance width="227"/>
  <unicode hex="00B2"/>
  <outline>
    <contour>
      <point x="130" y="755" type="curve"/>
      <point x="114" y="776" type="line"/>
      <point x="144" y="806"/>
      <point x="194" y="834"/>
      <point x="240" y="834" type="curve" smooth="yes"/>
      <point x="308" y="834"/>
      <point x="327" y="794"/>
      <point x="327" y="761" type="curve" smooth="yes"/>
      <point x="327" y="698"/>
      <point x="248" y="642"/>
      <point x="192" y="610" type="curve" smooth="yes"/>
      <point x="131" y="575"/>
      <point x="101" y="549"/>
      <point x="79" y="483" type="curve"/>
      <point x="274" y="483" type="line"/>
      <point x="263" y="457" type="line"/>
      <point x="48" y="457" type="line"/>
      <point x="50" y="468" type="line" smooth="yes"/>
      <point x="65" y="548"/>
      <point x="106" y="588"/>
      <point x="182" y="632" type="curve" smooth="yes"/>
      <point x="263" y="679"/>
      <point x="300" y="717"/>
      <point x="300" y="755" type="curve" smooth="yes"/>
      <point x="300" y="787"/>
      <point x="269" y="807"/>
      <point x="234" y="807" type="curve" smooth="yes"/>
      <point x="202" y="807"/>
      <point x="165" y="795"/>
    </contour>
  </outline>
</glyph>
<glyph name="paragraph" format="1">
  <advance width="549"/>
  <unicode hex="00B6"/>
  <outline>
    <contour>
      <point x="456" y="756" type="curve"/>
      <point x="448" y="688"/>
      <point x="390" y="366"/>
      <point x="208" y="-78" type="curve"/>
      <point x="172" y="-81" type="line"/>
      <point x="237" y="77"/>
      <point x="289" y="234"/>
      <point x="329" y="363" type="curve"/>
      <point x="242" y="363"/>
      <point x="115" y="376"/>
      <point x="115" y="493" type="curve" smooth="yes"/>
      <point x="115" y="671"/>
      <point x="322" y="766"/>
      <point x="477" y="795" type="curve"/>
      <point x="476" y="761" type="line"/>
      <point x="475" y="761"/>
      <point x="456" y="756"/>
    </contour>
    <contour>
      <point x="537" y="744" type="curve"/>
      <point x="573" y="748" type="line"/>
      <point x="565" y="685"/>
      <point x="504" y="361"/>
      <point x="326" y="-78" type="curve"/>
      <point x="288" y="-82" type="line"/>
      <point x="466" y="350"/>
      <point x="524" y="681"/>
    </contour>
  </outline>
</glyph>
<glyph name="periodcentered" format="1">
  <advance width="490"/>
  <unicode hex="00B7"/>
  <outline>
    <contour>
      <point x="287" y="290" type="line"/>
      <point x="266" y="225" type="line"/>
      <point x="211" y="217" type="line"/>
      <point x="230" y="281" type="line"/>
    </contour>
  </outline>
</glyph>
<glyph name="cedilla" format="1">
  <advance width="490"/>
  <unicode hex="00B8"/>
  <outline>
    <contour>
      <point x="169" y="20" type="line"/>
      <point x="154" y="-41" type="line"/>
      <point x="168" y="-41" type="line" smooth="yes"/>
      <point x="214" y="-41"/>
      <point x="244" y="-66"/>
      <point x="244" y="-106" type="curve" smooth="yes"/>
      <point x="244" y="-161"/>
      <point x="193" y="-209"/>
      <point x="140" y="-209" type="curve" smooth="yes"/>
      <point x="116" y="-209"/>
      <point x="96" y="-200"/>
      <point x="83" y="-184" type="curve"/>
      <point x="104" y="-168" type="line"/>
      <point x="113" y="-177"/>
      <point x="124" y="-186"/>
      <point x="145" y="-186" type="curve" smooth="yes"/>
      <point x="183" y="-186"/>
      <point x="220" y="-152"/>
      <point x="220" y="-112" type="curve" smooth="yes"/>
      <point x="220" y="-85"/>
      <point x="200" y="-64"/>
      <point x="171" y="-64" type="curve" smooth="yes"/>
      <point x="160" y="-64"/>
      <point x="147" y="-68"/>
      <point x="138" y="-72" type="curve"/>
      <point x="121" y="-52" type="line"/>
      <point x="160" y="15" type="line"/>
    </contour>
  </outline>
</glyph>
<glyph name="onesuperior" format="1">
  <advance width="169"/>
  <unicode hex="00B9"/>
  <outline>
    <contour>
      <point x="61" y="473" type="line"/>
      <point x="71" y="500" type="line"/>
      <point x="136" y="500" type="line"/>
      <point x="203" y="796" type="line"/>
      <point x="126" y="738" type="line"/>
      <point x="114" y="759" type="line"/>
      <point x="244" y="857" type="line"/>
      <point x="163" y="500" type="line"/>
      <point x="219" y="500" type="line"/>
      <point x="207" y="473" type="line"/>
    </contour>
  </outline>
</glyph>
<glyph name="ordmasculine" format="1">
  <advance width="275"/>
  <unicode hex="00BA"/>
  <outline>
    <contour>
      <point x="154" y="371" type="curve" smooth="yes"/>
      <point x="89" y="371"/>
      <point x="52" y="419"/>
      <point x="52" y="481" type="curve" smooth="yes"/>
      <point x="52" y="589"/>
      <point x="152" y="688"/>
      <point x="241" y="688" type="curve" smooth="yes"/>
      <point x="302" y="688"/>
      <point x="340" y="639"/>
      <point x="340" y="576" type="curve" smooth="yes"/>
      <point x="340" y="470"/>
      <point x="240" y="371"/>
    </contour>
    <contour>
      <point x="232" y="660" type="curve" smooth="yes"/>
      <point x="167" y="660"/>
      <point x="86" y="575"/>
      <point x="86" y="484" type="curve" smooth="yes"/>
      <point x="86" y="433"/>
      <point x="114" y="398"/>
      <point x="160" y="398" type="curve" smooth="yes"/>
      <point x="225" y="398"/>
      <point x="306" y="481"/>
      <point x="306" y="568" type="curve" smooth="yes"/>
      <point x="306" y="617"/>
      <point x="280" y="660"/>
    </contour>
  </outline>
</glyph>
<glyph name="guillemotright" format="1">
  <advance width="599"/>
  <unicode hex="00BB"/>
  <outline>
    <contour>
      <point x="295" y="73" type="line"/>
      <point x="279" y="99" type="line"/>
      <point x="478" y="252" type="line"/>
      <point x="328" y="410" type="line"/>
      <point x="356" y="435" type="line"/>
      <point x="532" y="251" type="line"/>
    </contour>
    <contour>
      <point x="84" y="73" type="line"/>
      <point x="65" y="99" type="line"/>
      <point x="265" y="252" type="line"/>
      <point x="114" y="410" type="line"/>
      <point x="142" y="435" type="line"/>
      <point x="319" y="251" type="line"/>
    </contour>
  </outline>
</glyph>
<glyph name="Acircumflex" format="1">
  <advance width="613"/>
  <unicode hex="00C2"/>
  <outline>
    <contour>
      <point x="319" y="743" type="line"/>
      <point x="303" y="771" type="line"/>
      <point x="467" y="884" type="line"/>
      <point x="562" y="771" type="line"/>
      <point x="534" y="745" type="line"/>
      <point x="454" y="833" type="line"/>
    </contour>
    <contour>
      <point x="444" y="679" type="line"/>
      <point x="519" y="29" type="line"/>
      <point x="484" y="7" type="line"/>
      <point x="453" y="271" type="line"/>
      <point x="153" y="211" type="line"/>
      <point x="32" y="4" type="line"/>
      <point x="3" y="22" type="line"/>
      <point x="107" y="201" type="line"/>
      <point x="57" y="191" type="line"/>
      <point x="57" y="227" type="line"/>
      <point x="133" y="241" type="line"/>
      <point x="382" y="668" type="line"/>
    </contour>
    <contour>
      <point x="178" y="251" type="line"/>
      <point x="448" y="304" type="line"/>
      <point x="409" y="646" type="line"/>
    </contour>
  </outline>
</glyph>
<glyph name="AE" format="1">
  <advance width="1039"/>
  <unicode hex="00C6"/>
  <outline>
    <contour>
      <point x="505" y="37" type="line"/>
      <point x="945" y="37" type="line"/>
      <point x="923" y="0" type="line"/>
      <point x="461" y="0" type="line"/>
      <point x="528" y="318" type="line"/>
      <point x="272" y="268" type="line"/>
      <point x="30" y="3" type="line"/>
      <point x="3" y="21" type="line"/>
      <point x="222" y="260" type="line"/>
      <point x="163" y="246" type="line"/>
      <point x="163" y="280" type="line"/>
      <point x="260" y="300" type="line"/>
      <point x="610" y="681" type="line"/>
      <point x="1078" y="681" type="line"/>
      <point x="1062" y="644" type="line"/>
      <point x="634" y="644" type="line"/>
      <point x="577" y="373" type="line"/>
      <point x="969" y="373" type="line"/>
      <point x="950" y="336" type="line"/>
      <point x="569" y="336" type="line"/>
    </contour>
    <contour>
      <point x="536" y="354" type="line"/>
      <point x="590" y="611" type="line"/>
      <point x="312" y="310" type="line"/>
    </contour>
  </outline>
</glyph>
<glyph name="Ccedilla" format="1">
  <advance width="621"/>
  <unicode hex="00C7"/>
  <outline>
    <contour>
      <point x="250" y="-184" type="curve" smooth="yes"/>
      <point x="288" y="-184"/>
      <point x="322" y="-150"/>
      <point x="322" y="-110" type="curve" smooth="yes"/>
      <point x="322" y="-83"/>
      <point x="305" y="-63"/>
      <point x="276" y="-63" type="curve" smooth="yes"/>
      <point x="265" y="-63"/>
      <point x="252" y="-67"/>
      <point x="243" y="-71" type="curve"/>
      <point x="226" y="-52" type="line"/>
      <point x="255" y="-1" type="line"/>
      <point x="134" y="13"/>
      <point x="52" y="105"/>
      <point x="52" y="228" type="curve" smooth="yes"/>
      <point x="52" y="384"/>
      <point x="232" y="681"/>
      <point x="436" y="681" type="curve" smooth="yes"/>
      <point x="490" y="681"/>
      <point x="543" y="661"/>
      <point x="585" y="623" type="curve"/>
      <point x="592" y="657" type="line"/>
      <point x="619" y="657" type="line"/>
      <point x="597" y="555" type="line"/>
      <point x="570" y="555" type="line"/>
      <point x="575" y="575" type="line"/>
      <point x="553" y="609"/>
      <point x="510" y="647"/>
      <point x="423" y="647" type="curve" smooth="yes"/>
      <point x="253" y="647"/>
      <point x="87" y="367"/>
      <point x="87" y="235" type="curve" smooth="yes"/>
      <point x="87" y="120"/>
      <point x="167" y="33"/>
      <point x="286" y="33" type="curve" smooth="yes"/>
      <point x="385" y="33"/>
      <point x="456" y="68"/>
      <point x="528" y="147" type="curve"/>
      <point x="546" y="124" type="line"/>
      <point x="479" y="47"/>
      <point x="372" y="-1"/>
      <point x="267" y="-1" type="curve"/>
      <point x="259" y="-40" type="line"/>
      <point x="273" y="-40" type="line" smooth="yes"/>
      <point x="318" y="-40"/>
      <point x="348" y="-65"/>
      <point x="348" y="-105" type="curve" smooth="yes"/>
      <point x="348" y="-159"/>
      <point x="298" y="-207"/>
      <point x="246" y="-207" type="curve" smooth="yes"/>
      <point x="222" y="-207"/>
      <point x="201" y="-198"/>
      <point x="190" y="-182" type="curve"/>
      <point x="209" y="-166" type="line"/>
      <point x="219" y="-175"/>
      <point x="230" y="-184"/>
    </contour>
  </outline>
</glyph>
<glyph name="Egrave" format="1">
  <advance width="601"/>
  <unicode hex="00C8"/>
  <outline>
    <contour>
      <point x="468" y="770" type="line"/>
      <point x="434" y="750" type="line"/>
      <point x="334" y="879" type="line"/>
      <point x="381" y="904" type="line"/>
    </contour>
    <contour>
      <point x="57" y="37" type="line"/>
      <point x="497" y="37" type="line"/>
      <point x="475" y="0" type="line"/>
      <point x="13" y="0" type="line"/>
      <point x="157" y="681" type="line"/>
      <point x="630" y="681" type="line"/>
      <point x="614" y="644" type="line"/>
      <point x="186" y="644" type="line"/>
      <point x="129" y="373" type="line"/>
      <point x="521" y="373" type="line"/>
      <point x="502" y="336" type="line"/>
      <point x="121" y="336" type="line"/>
    </contour>
  </outline>
</glyph>
<glyph name="Edieresis" format="1">
  <advance width="601"/>
  <unicode hex="00CB"/>
  <outline>
    <contour>
      <point x="377" y="822" type="line"/>
      <point x="357" y="758" type="line"/>
      <point x="301" y="750" type="line"/>
      <point x="322" y="814" type="line"/>
    </contour>
    <contour>
      <point x="543" y="822" type="line"/>
      <point x="523" y="758" type="line"/>
      <point x="467" y="750" type="line"/>
      <point x="488" y="814" type="line"/>
    </contour>
    <contour>
      <point x="57" y="37" type="line"/>
      <point x="497" y="37" type="line"/>
      <point x="475" y="0" type="line"/>
      <point x="13" y="0" type="line"/>
      <point x="157" y="681" type="line"/>
      <point x="630" y="681" type="line"/>
      <point x="614" y="644" type="line"/>
      <point x="186" y="644" type="line"/>
      <point x="129" y="373" type="line"/>
      <point x="521" y="373" type="line"/>
      <point x="502" y="336" type="line"/>
      <point x="121" y="336" type="line"/>
    </contour>
  </outline>
</glyph>
<glyph name="Iacute" format="1">
  <advance width="427"/>
  <unicode hex="00CD"/>
  <outline>
    <contour>
      <point x="247" y="784" type="line"/>
      <point x="409" y="896" type="line"/>
      <point x="440" y="864" type="line"/>
      <point x="268" y="760" type="line"/>
    </contour>
    <contour>
      <point x="442" y="644" type="line"/>
      <point x="319" y="644" type="line"/>
      <point x="190" y="37" type="line"/>
      <point x="320" y="37" type="line"/>
      <point x="306" y="0" type="line"/>
      <point x="11" y="0" type="line"/>
      <point x="25" y="37" type="line"/>
      <point x="153" y="37" type="line"/>
      <point x="282" y="644" type="line"/>
      <point x="147" y="644" type="line"/>
      <point x="162" y="681" type="line"/>
      <point x="457" y="681" type="line"/>
    </contour>
  </outline>
</glyph>
<glyph name="Icircumflex" format="1">
  <advance width="427"/>
  <unicode hex="00CE"/>
  <outline>
    <contour>
      <point x="213" y="743" type="line"/>
      <point x="198" y="771" type="line"/>
      <point x="362" y="884" type="line"/>
      <point x="456" y="771" type="line"/>
      <point x="429" y="745" type="line"/>
      <point x="349" y="833" type="line"/>
    </contour>
    <contour>
      <point x="442" y="644" type="line"/>
      <point x="319" y="644" type="line"/>
      <point x="190" y="37" type="line"/>
      <point x="320" y="37" type="line"/>
      <point x="306" y="0" type="line"/>
      <point x="11" y="0" type="line"/>
      <point x="25" y="37" type="line"/>
      <point x="153" y="37" type="line"/>
      <point x="282" y="644" type="line"/>
      <point x="147" y="644" type="line"/>
      <point x="162" y="681" type="line"/>
      <point x="457" y="681" type="line"/>
    </contour>
  </outline>
</glyph>
<glyph name="Otilde" format="1">
  <advance width="650"/>
  <unicode hex="00D5"/>
  <outline>
    <contour>
      <point x="252" y="-2" type="curve" smooth="yes"/>
      <point x="133" y="-2"/>
      <point x="64" y="98"/>
      <point x="64" y="229" type="curve" smooth="yes"/>
      <point x="64" y="465"/>
      <point x="267" y="682"/>
      <point x="441" y="682" type="curve" smooth="yes"/>
      <point x="559" y="682"/>
      <point x="630" y="584"/>
      <point x="630" y="452" type="curve" smooth="yes"/>
      <point x="630" y="217"/>
      <point x="426" y="-2"/>
    </contour>
    <contour>
      <point x="430" y="649" type="curve" smooth="yes"/>
      <point x="286" y="649"/>
      <point x="98" y="456"/>
      <point x="98" y="233" type="curve" smooth="yes"/>
      <point x="98" y="117"/>
      <point x="158" y="31"/>
      <point x="259" y="31" type="curve" smooth="yes"/>
      <point x="406" y="31"/>
      <point x="594" y="227"/>
      <point x="594" y="438" type="curve" smooth="yes"/>
      <point x="594" y="553"/>
      <point x="536" y="649"/>
    </contour>
    <contour>
      <point x="482" y="820" type="curve"/>
      <point x="500" y="781"/>
      <point x="509" y="774"/>
      <point x="530" y="774" type="curve" smooth="yes"/>
      <point x="568" y="774"/>
      <point x="602" y="821"/>
      <point x="620" y="855" type="curve"/>
      <point x="649" y="845" type="line"/>
      <point x="620" y="789"/>
      <point x="567" y="743"/>
      <point x="523" y="743" type="curve" smooth="yes"/>
      <point x="482" y="743"/>
      <point x="466" y="774"/>
      <point x="453" y="801" type="curve" smooth="yes"/>
      <point x="435" y="838"/>
      <point x="425" y="844"/>
      <point x="405" y="844" type="curve" smooth="yes"/>
      <point x="371" y="844"/>
      <point x="336" y="802"/>
      <point x="319" y="771" type="curve"/>
      <point x="292" y="781" type="line"/>
      <point x="317" y="825"/>
      <point x="360" y="876"/>
      <point x="412" y="876" type="curve" smooth="yes"/>
      <point x="454" y="876"/>
      <point x="469" y="845"/>
    </contour>
  </outline>
</glyph>
<glyph name="multiply" format="1">
  <advance width="344"/>
  <unicode hex="00D7"/>
  <outline>
    <contour>
      <point x="199" y="253" type="line"/>
      <point x="268" y="165" type="line"/>
      <point x="238" y="141" type="line"/>
      <point x="170" y="228" type="line"/>
      <point x="60" y="139" type="line"/>
      <point x="41" y="162" type="line"/>
      <point x="151" y="253" type="line"/>
      <point x="87" y="334" type="line"/>
      <point x="116" y="358" type="line"/>
      <point x="180" y="277" type="line"/>
      <point x="287" y="366" type="line"/>
      <point x="306" y="342" type="line"/>
    </contour>
  </outline>
</glyph>
<glyph name="Oslash" format="1">
  <advance width="650"/>
  <unicode hex="00D8"/>
  <outline>
    <contour>
      <point x="636" y="721" type="line"/>
      <point x="568" y="633" type="line"/>
      <point x="612" y="590"/>
      <point x="631" y="527"/>
      <point x="631" y="459" type="curve" smooth="yes"/>
      <point x="631" y="221"/>
      <point x="429" y="-1"/>
      <point x="252" y="-1" type="curve" smooth="yes"/>
      <point x="206" y="-1"/>
      <point x="161" y="19"/>
      <point x="123" y="53" type="curve"/>
      <point x="58" y="-31" type="line"/>
      <point x="34" y="-13" type="line"/>
      <point x="103" y="77" type="line"/>
      <point x="77" y="119"/>
      <point x="64" y="171"/>
      <point x="64" y="228" type="curve" smooth="yes"/>
      <point x="64" y="473"/>
      <point x="265" y="683"/>
      <point x="442" y="683" type="curve" smooth="yes"/>
      <point x="477" y="683"/>
      <point x="512" y="673"/>
      <point x="545" y="651" type="curve"/>
      <point x="610" y="738" type="line"/>
    </contour>
    <contour>
      <point x="127" y="107" type="curve"/>
      <point x="520" y="620" type="line"/>
      <point x="491" y="640"/>
      <point x="460" y="650"/>
      <point x="427" y="650" type="curve" smooth="yes"/>
      <point x="283" y="650"/>
      <point x="98" y="455"/>
      <point x="98" y="232" type="curve" smooth="yes"/>
      <point x="98" y="186"/>
      <point x="108" y="143"/>
    </contour>
    <contour>
      <point x="259" y="32" type="curve" smooth="yes"/>
      <point x="458" y="32"/>
      <point x="595" y="299"/>
      <point x="595" y="446" type="curve" smooth="yes"/>
      <point x="595" y="504"/>
      <point x="580" y="561"/>
      <point x="543" y="600" type="curve"/>
      <point x="145" y="82" type="line"/>
      <point x="177" y="49"/>
      <point x="215" y="32"/>
    </contour>
  </outline>
</glyph>
<glyph name="aring" format="1">
  <advance width="494"/>
  <unicode hex="00E5"/>
  <outline>
    <contour>
      <point x="335" y="587" type="curve" smooth="yes"/>
      <point x="280" y="587"/>
      <point x="246" y="620"/>
      <point x="246" y="663" type="curve" smooth="yes"/>
      <point x="246" y="730"/>
      <point x="322" y="792"/>
      <point x="399" y="792" type="curve" smooth="yes"/>
      <point x="457" y="792"/>
      <point x="488" y="755"/>
      <point x="488" y="714" type="curve" smooth="yes"/>
      <point x="488" y="634"/>
      <point x="395" y="587"/>
    </contour>
    <contour>
      <point x="391" y="767" type="curve" smooth="yes"/>
      <point x="349" y="767"/>
      <point x="272" y="728"/>
      <point x="272" y="668" type="curve" smooth="yes"/>
      <point x="272" y="634"/>
      <point x="298" y="611"/>
      <point x="342" y="611" type="curve" smooth="yes"/>
      <point x="395" y="611"/>
      <point x="461" y="656"/>
      <point x="461" y="708" type="curve" smooth="yes"/>
      <point x="461" y="742"/>
      <point x="433" y="767"/>
    </contour>
    <contour>
      <point x="482" y="475" type="curve"/>
      <point x="384" y="10" type="line"/>
      <point x="344" y="2" type="line"/>
      <point x="357" y="65" type="line"/>
      <point x="310" y="39"/>
      <point x="239" y="7"/>
      <point x="184" y="7" type="curve" smooth="yes"/>
      <point x="94" y="7"/>
      <point x="37" y="69"/>
      <point x="37" y="164" type="curve" smooth="yes"/>
      <point x="37" y="309"/>
      <point x="166" y="513"/>
      <point x="343" y="513" type="curve" smooth="yes"/>
      <point x="396" y="513"/>
      <point x="442" y="497"/>
    </contour>
    <contour>
      <point x="190" y="44" type="curve" smooth="yes"/>
      <point x="255" y="44"/>
      <point x="336" y="91"/>
      <point x="365" y="109" type="curve"/>
      <point x="442" y="450" type="line"/>
      <point x="420" y="459"/>
      <point x="375" y="477"/>
      <point x="340" y="477" type="curve" smooth="yes"/>
      <point x="147" y="477"/>
      <point x="77" y="235"/>
      <point x="77" y="171" type="curve" smooth="yes"/>
      <point x="77" y="106"/>
      <point x="106" y="45"/>
    </contour>
  </outline>
</glyph>
<glyph name="ae" format="1">
  <advance width="854"/>
  <unicode hex="00E6"/>
  <outline>
    <contour>
      <point x="586" y="0" type="curve" smooth="yes"/>
      <point x="499" y="0"/>
      <point x="433" y="46"/>
      <point x="406" y="117" type="curve"/>
      <point x="384" y="10" type="line"/>
      <point x="344" y="2" type="line"/>
      <point x="357" y="65" type="line"/>
      <point x="310" y="39"/>
      <point x="239" y="7"/>
      <point x="184" y="7" type="curve" smooth="yes"/>
      <point x="94" y="7"/>
      <point x="37" y="69"/>
      <point x="37" y="164" type="curve" smooth="yes"/>
      <point x="37" y="309"/>
      <point x="168" y="513"/>
      <point x="343" y="513" type="curve" smooth="yes"/>
      <point x="396" y="513"/>
      <point x="442" y="497"/>
      <point x="482" y="475" type="curve"/>
      <point x="463" y="385" type="line"/>
      <point x="520" y="455"/>
      <point x="605" y="502"/>
      <point x="692" y="502" type="curve" smooth="yes"/>
      <point x="776" y="502"/>
      <point x="833" y="441"/>
      <point x="842" y="365" type="curve"/>
      <point x="429" y="159" type="line"/>
      <point x="450" y="83"/>
      <point x="511" y="32"/>
      <point x="592" y="32" type="curve" smooth="yes"/>
      <point x="644" y="32"/>
      <point x="699" y="54"/>
      <point x="746" y="91" type="curve"/>
      <point x="764" y="68" type="line"/>
      <point x="709" y="25"/>
      <point x="646" y="0"/>
    </contour>
    <contour>
      <point x="190" y="44" type="curve" smooth="yes"/>
      <point x="255" y="44"/>
      <point x="336" y="91"/>
      <point x="365" y="109" type="curve"/>
      <point x="442" y="450" type="line"/>
      <point x="420" y="459"/>
      <point x="375" y="477"/>
      <point x="340" y="477" type="curve" smooth="yes"/>
      <point x="147" y="477"/>
      <point x="77" y="235"/>
      <point x="77" y="171" type="curve" smooth="yes"/>
      <point x="77" y="106"/>
      <point x="106" y="45"/>
    </contour>
    <contour>
      <point x="687" y="470" type="curve" smooth="yes"/>
      <point x="552" y="470"/>
      <point x="427" y="339"/>
      <point x="427" y="206" type="curve" smooth="yes"/>
      <point x="427" y="190" type="line"/>
      <point x="805" y="379" type="line"/>
      <point x="785" y="436"/>
      <point x="740" y="470"/>
    </contour>
  </outline>
</glyph>
<glyph name="ccedilla" format="1">
  <advance width="497"/>
  <unicode hex="00E7"/>
  <outline>
    <contour>
      <point x="230" y="33" type="curve"/>
      <point x="294" y="36"/>
      <point x="356" y="67"/>
      <point x="396" y="115" type="curve"/>
      <point x="416" y="90" type="line"/>
      <point x="367" y="35"/>
      <point x="298" y="3"/>
      <point x="224" y="0" type="curve"/>
      <point x="194" y="0" type="line"/>
      <point x="184" y="-41" type="line"/>
      <point x="198" y="-41" type="line" smooth="yes"/>
      <point x="244" y="-41"/>
      <point x="274" y="-66"/>
      <point x="274" y="-106" type="curve" smooth="yes"/>
      <point x="274" y="-161"/>
      <point x="223" y="-209"/>
      <point x="170" y="-209" type="curve" smooth="yes"/>
      <point x="146" y="-209"/>
      <point x="126" y="-200"/>
      <point x="113" y="-184" type="curve"/>
      <point x="134" y="-168" type="line"/>
      <point x="143" y="-177"/>
      <point x="154" y="-186"/>
      <point x="175" y="-186" type="curve" smooth="yes"/>
      <point x="213" y="-186"/>
      <point x="250" y="-152"/>
      <point x="250" y="-112" type="curve" smooth="yes"/>
      <point x="250" y="-85"/>
      <point x="230" y="-64"/>
      <point x="201" y="-64" type="curve" smooth="yes"/>
      <point x="190" y="-64"/>
      <point x="177" y="-68"/>
      <point x="168" y="-72" type="curve"/>
      <point x="151" y="-52" type="line"/>
      <point x="182" y="2" type="line"/>
      <point x="98" y="15"/>
      <point x="38" y="83"/>
      <point x="38" y="171" type="curve" smooth="yes"/>
      <point x="38" y="276"/>
      <point x="168" y="502"/>
      <point x="326" y="502" type="curve" smooth="yes"/>
      <point x="384" y="502"/>
      <point x="432" y="478"/>
      <point x="458" y="438" type="curve"/>
      <point x="426" y="413" type="line"/>
      <point x="407" y="450"/>
      <point x="369" y="469"/>
      <point x="321" y="469" type="curve" smooth="yes"/>
      <point x="183" y="469"/>
      <point x="73" y="257"/>
      <point x="73" y="169" type="curve" smooth="yes"/>
      <point x="73" y="53"/>
      <point x="182" y="33"/>
    </contour>
  </outline>
</glyph>
<glyph name="egrave" format="1">
  <advance width="517"/>
  <unicode hex="00E8"/>
  <outline>
    <contour>
      <point x="410" y="602" type="line"/>
      <point x="376" y="582" type="line"/>
      <point x="275" y="712" type="line"/>
      <point x="322" y="737" type="line"/>
    </contour>
    <contour>
      <point x="239" y="0" type="curve" smooth="yes"/>
      <point x="123" y="0"/>
      <point x="44" y="83"/>
      <point x="44" y="196" type="curve" smooth="yes"/>
      <point x="44" y="356"/>
      <point x="193" y="502"/>
      <point x="345" y="502" type="curve" smooth="yes"/>
      <point x="429" y="502"/>
      <point x="486" y="441"/>
      <point x="495" y="365" type="curve"/>
      <point x="82" y="159" type="line"/>
      <point x="103" y="83"/>
      <point x="164" y="32"/>
      <point x="245" y="32" type="curve" smooth="yes"/>
      <point x="297" y="32"/>
      <point x="352" y="54"/>
      <point x="399" y="91" type="curve"/>
      <point x="417" y="68" type="line"/>
      <point x="362" y="25"/>
      <point x="299" y="0"/>
    </contour>
    <contour>
      <point x="338" y="470" type="curve" smooth="yes"/>
      <point x="203" y="470"/>
      <point x="78" y="339"/>
      <point x="78" y="206" type="curve" smooth="yes"/>
      <point x="78" y="190" type="line"/>
      <point x="456" y="379" type="line"/>
      <point x="436" y="436"/>
      <point x="391" y="470"/>
    </contour>
  </outline>
</glyph>
<glyph name="igrave" format="1">
  <advance width="207"/>
  <unicode hex="00EC"/>
  <outline>
    <contour>
      <point x="243" y="602" type="line"/>
      <point x="209" y="582" type="line"/>
      <point x="108" y="712" type="line"/>
      <point x="154" y="737" type="line"/>
    </contour>
    <contour>
      <point x="133" y="493" type="line"/>
      <point x="174" y="498" type="line"/>
      <point x="70" y="9" type="line"/>
      <point x="29" y="2" type="line"/>
    </contour>
  </outline>
</glyph>
<glyph name="idieresis" format="1">
  <advance width="236"/>
  <unicode hex="00EF"/>
  <outline>
    <contour>
      <point x="167" y="669" type="line"/>
      <point x="145" y="604" type="line"/>
      <point x="89" y="596" type="line"/>
      <point x="110" y="660" type="line"/>
    </contour>
    <contour>
      <point x="333" y="669" type="line"/>
      <point x="312" y="604" type="line"/>
      <point x="256" y="596" type="line"/>
      <point x="276" y="660" type="line"/>
    </contour>
    <contour>
      <point x="148" y="493" type="line"/>
      <point x="190" y="498" type="line"/>
      <point x="86" y="9" type="line"/>
      <point x="44" y="2" type="line"/>
    </contour>
  </outline>
</glyph>
<glyph name="eth" format="1">
  <advance width="472"/>
  <unicode hex="00F0"/>
  <outline>
    <contour>
      <point x="332" y="599" type="curve"/>
      <point x="384" y="526"/>
      <point x="435" y="425"/>
      <point x="435" y="319" type="curve" smooth="yes"/>
      <point x="435" y="174"/>
      <point x="318" y="0"/>
      <point x="159" y="0" type="curve" smooth="yes"/>
      <point x="81" y="0"/>
      <point x="28" y="52"/>
      <point x="28" y="132" type="curve" smooth="yes"/>
      <point x="28" y="312"/>
      <point x="205" y="433"/>
      <point x="382" y="433" type="curve"/>
      <point x="359" y="494"/>
      <point x="327" y="544"/>
      <point x="300" y="583" type="curve"/>
      <point x="246" y="556"/>
      <point x="188" y="524"/>
      <point x="163" y="509" type="curve"/>
      <point x="156" y="528" type="line"/>
      <point x="194" y="550"/>
      <point x="251" y="579"/>
      <point x="288" y="599" type="curve"/>
      <point x="271" y="620"/>
      <point x="258" y="635"/>
      <point x="248" y="647" type="curve"/>
      <point x="273" y="672" type="line"/>
      <point x="321" y="614" type="line"/>
      <point x="366" y="636"/>
      <point x="421" y="663"/>
      <point x="459" y="678" type="curve"/>
      <point x="462" y="659" type="line"/>
      <point x="428" y="646"/>
      <point x="367" y="619"/>
    </contour>
    <contour>
      <point x="165" y="32" type="curve" smooth="yes"/>
      <point x="306" y="32"/>
      <point x="402" y="196"/>
      <point x="402" y="318" type="curve" smooth="yes"/>
      <point x="402" y="345"/>
      <point x="398" y="373"/>
      <point x="391" y="401" type="curve"/>
      <point x="234" y="401"/>
      <point x="62" y="313"/>
      <point x="62" y="135" type="curve" smooth="yes"/>
      <point x="62" y="71"/>
      <point x="102" y="32"/>
    </contour>
  </outline>
</glyph>
<glyph name="ntilde" format="1">
  <advance width="526"/>
  <unicode hex="00F1"/>
  <outline>
    <contour>
      <point x="156" y="500" type="line"/>
      <point x="109" y="282" type="line"/>
      <point x="155" y="383"/>
      <point x="268" y="501"/>
      <point x="378" y="501" type="curve" smooth="yes"/>
      <point x="443" y="501"/>
      <point x="477" y="465"/>
      <point x="481" y="397" type="curve"/>
      <point x="480" y="333"/>
      <point x="465" y="244"/>
      <point x="437" y="109" type="curve" smooth="yes"/>
      <point x="416" y="10" type="line"/>
      <point x="378" y="3" type="line"/>
      <point x="408" y="144" type="line" smooth="yes"/>
      <point x="428" y="240"/>
      <point x="444" y="323"/>
      <point x="444" y="377" type="curve" smooth="yes"/>
      <point x="444" y="441"/>
      <point x="422" y="467"/>
      <point x="368" y="467" type="curve" smooth="yes"/>
      <point x="318" y="467"/>
      <point x="257" y="445"/>
      <point x="176" y="337" type="curve" smooth="yes"/>
      <point x="127" y="272"/>
      <point x="92" y="202"/>
      <point x="76" y="126" type="curve" smooth="yes"/>
      <point x="51" y="10" type="line"/>
      <point x="13" y="2" type="line"/>
      <point x="117" y="493" type="line"/>
    </contour>
    <contour>
      <point x="386" y="656" type="curve"/>
      <point x="404" y="617"/>
      <point x="413" y="610"/>
      <point x="434" y="610" type="curve" smooth="yes"/>
      <point x="472" y="610"/>
      <point x="506" y="657"/>
      <point x="524" y="691" type="curve"/>
      <point x="553" y="681" type="line"/>
      <point x="524" y="625"/>
      <point x="472" y="579"/>
      <point x="428" y="579" type="curve" smooth="yes"/>
      <point x="387" y="579"/>
      <point x="370" y="610"/>
      <point x="357" y="637" type="curve" smooth="yes"/>
      <point x="339" y="674"/>
      <point x="329" y="680"/>
      <point x="309" y="680" type="curve" smooth="yes"/>
      <point x="275" y="680"/>
      <point x="240" y="638"/>
      <point x="224" y="607" type="curve"/>
      <point x="196" y="617" type="line"/>
      <point x="221" y="661"/>
      <point x="264" y="712"/>
      <point x="316" y="712" type="curve" smooth="yes"/>
      <point x="358" y="712"/>
      <point x="373" y="681"/>
    </contour>
  </outline>
</glyph>
<glyph name="ocircumflex" format="1">
  <advance width="525"/>
  <unicode hex="00F4"/>
  <outline>
    <contour>
      <point x="248" y="575" type="line"/>
      <point x="232" y="603" type="line"/>
      <point x="398" y="718" type="line"/>
      <point x="494" y="603" type="line"/>
      <point x="465" y="577" type="line"/>
      <point x="384" y="667" type="line"/>
    </contour>
    <contour>
      <point x="197" y="0" type="curve" smooth="yes"/>
      <point x="100" y="0"/>
      <point x="40" y="76"/>
      <point x="40" y="176" type="curve" smooth="yes"/>
      <point x="40" y="347"/>
      <point x="191" y="500"/>
      <point x="335" y="500" type="curve" smooth="yes"/>
      <point x="431" y="500"/>
      <point x="492" y="424"/>
      <point x="492" y="325" type="curve" smooth="yes"/>
      <point x="492" y="154"/>
      <point x="334" y="0"/>
    </contour>
    <contour>
      <point x="323" y="467" type="curve" smooth="yes"/>
      <point x="208" y="467"/>
      <point x="79" y="325"/>
      <point x="79" y="177" type="curve" smooth="yes"/>
      <point x="79" y="94"/>
      <point x="124" y="32"/>
      <point x="205" y="32" type="curve" smooth="yes"/>
      <point x="316" y="32"/>
      <point x="452" y="170"/>
      <point x="452" y="315" type="curve" smooth="yes"/>
      <point x="452" y="401"/>
      <point x="401" y="467"/>
    </contour>
  </outline>
</glyph>
<glyph name="divide" format="1">
  <advance width="397"/>
  <unicode hex="00F7"/>
  <outline>
    <contour>
      <point x="256" y="382" type="line"/>
      <point x="243" y="337" type="line"/>
      <point x="203" y="331" type="line"/>
      <point x="217" y="376" type="line"/>
    </contour>
    <contour>
      <point x="200" y="191" type="line"/>
      <point x="187" y="145" type="line"/>
      <point x="146" y="139" type="line"/>
      <point x="162" y="184" type="line"/>
    </contour>
    <contour>
      <point x="56" y="244" type="line"/>
      <point x="70" y="277" type="line"/>
      <point x="349" y="277" type="line"/>
      <point x="335" y="244" type="line"/>
    </contour>
  </outline>
</glyph>
<glyph name="oslash" format="1">
  <advance width="525"/>
  <unicode hex="00F8"/>
  <outline>
    <contour>
      <point x="197" y="0" type="curve" smooth="yes"/>
      <point x="159" y="0"/>
      <point x="127" y="12"/>
      <point x="101" y="32" type="curve"/>
      <point x="51" y="-32" type="line"/>
      <point x="28" y="-16" type="line"/>
      <point x="81" y="51" type="line"/>
      <point x="54" y="82"/>
      <point x="40" y="126"/>
      <point x="40" y="175" type="curve" smooth="yes"/>
      <point x="40" y="347"/>
      <point x="190" y="500"/>
      <point x="335" y="500" type="curve" smooth="yes"/>
      <point x="367" y="500"/>
      <point x="396" y="491"/>
      <point x="420" y="476" type="curve"/>
      <point x="473" y="543" type="line"/>
      <point x="496" y="526" type="line"/>
      <point x="442" y="457" type="line"/>
      <point x="474" y="425"/>
      <point x="492" y="379"/>
      <point x="492" y="325" type="curve" smooth="yes"/>
      <point x="492" y="154"/>
      <point x="334" y="0"/>
    </contour>
    <contour>
      <point x="205" y="32" type="curve" smooth="yes"/>
      <point x="333" y="32"/>
      <point x="452" y="189"/>
      <point x="452" y="315" type="curve" smooth="yes"/>
      <point x="452" y="359"/>
      <point x="439" y="398"/>
      <point x="416" y="425" type="curve"/>
      <point x="124" y="61" type="line"/>
      <point x="146" y="43"/>
      <point x="172" y="32"/>
    </contour>
    <contour>
      <point x="323" y="467" type="curve" smooth="yes"/>
      <point x="208" y="467"/>
      <point x="79" y="325"/>
      <point x="79" y="177" type="curve" smooth="yes"/>
      <point x="79" y="140"/>
      <point x="88" y="107"/>
      <point x="105" y="82" type="curve"/>
      <point x="394" y="444" type="line"/>
      <point x="374" y="458"/>
      <point x="350" y="467"/>
    </contour>
  </outline>
</glyph>
<glyph name="yacute" format="1">
  <advance width="490"/>
  <unicode hex="00FD"/>
  <outline>
    <contour>
      <point x="249" y="617" type="line"/>
      <point x="413" y="730" type="line"/>
      <point x="444" y="698" type="line"/>
      <point x="270" y="593" type="line"/>
    </contour>
    <contour>
      <point x="492" y="496" type="line"/>
      <point x="522" y="479" type="line"/>
      <point x="61" y="-203" type="line"/>
      <point x="30" y="-186" type="line"/>
      <point x="193" y="52" type="line"/>
      <point x="70" y="478" type="line"/>
      <point x="109" y="495" type="line"/>
      <point x="221" y="97" type="line"/>
    </contour>
  </outline>
</glyph>
<glyph name="Abreve" format="1">
  <advance width="613"/>
  <unicode hex="0102"/>
  <outline>
    <contour>
      <point x="444" y="679" type="line"/>
      <point x="519" y="29" type="line"/>
      <point x="484" y="7" type="line"/>
      <point x="453" y="271" type="line"/>
      <point x="153" y="211" type="line"/>
      <point x="32" y="4" type="line"/>
      <point x="3" y="22" type="line"/>
      <point x="107" y="201" type="line"/>
      <point x="57" y="191" type="line"/>
      <point x="57" y="227" type="line"/>
      <point x="133" y="241" type="line"/>
      <point x="382" y="668" type="line"/>
    </contour>
    <contour>
      <point x="178" y="251" type="line"/>
      <point x="448" y="304" type="line"/>
      <point x="409" y="646" type="line"/>
    </contour>
    <contour>
      <point x="445" y="788" type="curve" smooth="yes"/>
      <point x="498" y="788"/>
      <point x="551" y="813"/>
      <point x="582" y="862" type="curve"/>
      <point x="596" y="845" type="line"/>
      <point x="565" y="796"/>
      <point x="500" y="761"/>
      <point x="441" y="761" type="curve" smooth="yes"/>
      <point x="375" y="761"/>
      <point x="328" y="793"/>
      <point x="313" y="841" type="curve"/>
      <point x="333" y="858" type="line"/>
      <point x="359" y="800"/>
      <point x="406" y="788"/>
    </contour>
  </outline>
</glyph>
<glyph name="abreve" format="1">
  <advance width="494"/>
  <unicode hex="0103"/>
  <outline>
    <contour>
      <point x="482" y="475" type="curve"/>
      <point x="384" y="10" type="line"/>
      <point x="344" y="2" type="line"/>
      <point x="357" y="65" type="line"/>
      <point x="310" y="39"/>
      <point x="239" y="7"/>
      <point x="184" y="7" type="curve" smooth="yes"/>
      <point x="94" y="7"/>
      <point x="37" y="69"/>
      <point x="37" y="164" type="curve" smooth="yes"/>
      <point x="37" y="309"/>
      <point x="175" y="513"/>
      <point x="343" y="513" type="curve" smooth="yes"/>
      <point x="396" y="513"/>
      <point x="442" y="497"/>
    </contour>
    <contour>
      <point x="190" y="44" type="curve" smooth="yes"/>
      <point x="255" y="44"/>
      <point x="336" y="91"/>
      <point x="365" y="109" type="curve"/>
      <point x="442" y="450" type="line"/>
      <point x="420" y="459"/>
      <point x="375" y="477"/>
      <point x="340" y="477" type="curve" smooth="yes"/>
      <point x="147" y="477"/>
      <point x="77" y="235"/>
      <point x="77" y="171" type="curve" smooth="yes"/>
      <point x="77" y="106"/>
      <point x="106" y="45"/>
    </contour>
    <contour>
      <point x="358" y="609" type="curve" smooth="yes"/>
      <point x="411" y="609"/>
      <point x="464" y="634"/>
      <point x="495" y="683" type="curve"/>
      <point x="509" y="666" type="line"/>
      <point x="478" y="617"/>
      <point x="413" y="582"/>
      <point x="354" y="582" type="curve" smooth="yes"/>
      <point x="288" y="582"/>
      <point x="241" y="614"/>
      <point x="226" y="662" type="curve"/>
      <point x="246" y="679" type="line"/>
      <point x="271" y="621"/>
      <point x="319" y="609"/>
    </contour>
  </outline>
</glyph>
<glyph name="Aogonek" format="1">
  <advance width="627"/>
  <unicode hex="0104"/>
  <outline>
    <contour>
      <point x="482" y="22" type="curve"/>
      <point x="453" y="271" type="line"/>
      <point x="153" y="211" type="line"/>
      <point x="32" y="4" type="line"/>
      <point x="3" y="22" type="line"/>
      <point x="107" y="201" type="line"/>
      <point x="57" y="191" type="line"/>
      <point x="57" y="227" type="line"/>
      <point x="133" y="241" type="line"/>
      <point x="382" y="668" type="line"/>
      <point x="444" y="679" type="line"/>
      <point x="520" y="14" type="line"/>
      <point x="474" y="-15" type="line" smooth="yes"/>
      <point x="441" y="-36"/>
      <point x="386" y="-71"/>
      <point x="385" y="-127" type="curve" smooth="yes"/>
      <point x="385" y="-158"/>
      <point x="409" y="-177"/>
      <point x="442" y="-177" type="curve" smooth="yes"/>
      <point x="477" y="-177"/>
      <point x="495" y="-166"/>
      <point x="523" y="-149" type="curve"/>
      <point x="535" y="-172" type="line"/>
      <point x="513" y="-191"/>
      <point x="472" y="-209"/>
      <point x="435" y="-209" type="curve" smooth="yes"/>
      <point x="386" y="-209"/>
      <point x="354" y="-179"/>
      <point x="354" y="-134" type="curve" smooth="yes"/>
      <point x="354" y="-64"/>
      <point x="427" y="-5"/>
    </contour>
    <contour>
      <point x="178" y="251" type="line"/>
      <point x="448" y="304" type="line"/>
      <point x="409" y="646" type="line"/>
    </contour>
  </outline>
</glyph>
<glyph name="aogonek" format="1">
  <advance width="500"/>
  <unicode hex="0105"/>
  <outline>
    <contour>
      <point x="384" y="10" type="line"/>
      <point x="343" y="-15" type="line" smooth="yes"/>
      <point x="312" y="-35"/>
      <point x="254" y="-70"/>
      <point x="254" y="-127" type="curve" smooth="yes"/>
      <point x="254" y="-158"/>
      <point x="278" y="-177"/>
      <point x="311" y="-177" type="curve" smooth="yes"/>
      <point x="346" y="-177"/>
      <point x="364" y="-166"/>
      <point x="392" y="-149" type="curve"/>
      <point x="404" y="-172" type="line"/>
      <point x="382" y="-191"/>
      <point x="341" y="-209"/>
      <point x="304" y="-209" type="curve" smooth="yes"/>
      <point x="255" y="-209"/>
      <point x="223" y="-179"/>
      <point x="223" y="-134" type="curve" smooth="yes"/>
      <point x="223" y="-65"/>
      <point x="293" y="-7"/>
      <point x="348" y="20" type="curve"/>
      <point x="357" y="65" type="line"/>
      <point x="310" y="39"/>
      <point x="239" y="7"/>
      <point x="184" y="7" type="curve" smooth="yes"/>
      <point x="94" y="7"/>
      <point x="37" y="69"/>
      <point x="37" y="164" type="curve" smooth="yes"/>
      <point x="37" y="309"/>
      <point x="175" y="513"/>
      <point x="343" y="513" type="curve" smooth="yes"/>
      <point x="396" y="513"/>
      <point x="442" y="497"/>
      <point x="482" y="475" type="curve"/>
    </contour>
    <contour>
      <point x="190" y="44" type="curve" smooth="yes"/>
      <point x="255" y="44"/>
      <point x="336" y="91"/>
      <point x="365" y="109" type="curve"/>
      <point x="442" y="450" type="line"/>
      <point x="420" y="459"/>
      <point x="375" y="477"/>
      <point x="340" y="477" type="curve" smooth="yes"/>
      <point x="147" y="477"/>
      <point x="77" y="235"/>
      <point x="77" y="171" type="curve" smooth="yes"/>
      <point x="77" y="106"/>
      <point x="106" y="45"/>
    </contour>
  </outline>
</glyph>
<glyph name="dcaron" format="1">
  <advance width="599"/>
  <unicode hex="010F"/>
  <outline>
    <contour>
      <point x="668" y="696" type="line"/>
      <point x="720" y="666" type="line"/>
      <point x="600" y="510" type="line"/>
      <point x="572" y="529" type="line"/>
      <point x="649" y="629" type="line"/>
      <point x="617" y="651" type="line"/>
    </contour>
    <contour>
      <point x="513" y="696" type="line"/>
      <point x="553" y="703" type="line"/>
      <point x="389" y="9" type="line"/>
      <point x="350" y="2" type="line"/>
      <point x="372" y="97" type="line"/>
      <point x="317" y="45"/>
      <point x="244" y="6"/>
      <point x="166" y="6" type="curve" smooth="yes"/>
      <point x="75" y="6"/>
      <point x="38" y="76"/>
      <point x="38" y="158" type="curve" smooth="yes"/>
      <point x="38" y="344"/>
      <point x="157" y="495"/>
      <point x="318" y="495" type="curve" smooth="yes"/>
      <point x="374" y="495"/>
      <point x="422" y="475"/>
      <point x="458" y="457" type="curve"/>
    </contour>
    <contour>
      <point x="387" y="158" type="curve" smooth="yes"/>
      <point x="448" y="417" type="line"/>
      <point x="429" y="428"/>
      <point x="370" y="460"/>
      <point x="307" y="460" type="curve" smooth="yes"/>
      <point x="124" y="460"/>
      <point x="75" y="235"/>
      <point x="75" y="157" type="curve" smooth="yes"/>
      <point x="75" y="96"/>
      <point x="96" y="36"/>
      <point x="172" y="36" type="curve" smooth="yes"/>
      <point x="283" y="36"/>
      <point x="379" y="123"/>
    </contour>
  </outline>
</glyph>
<glyph name="Ecaron" format="1">
  <advance width="601"/>
  <unicode hex="011A"/>
  <outline>
    <contour>
      <point x="547" y="884" type="line"/>
      <point x="562" y="854" type="line"/>
      <point x="397" y="743" type="line"/>
      <point x="303" y="855" type="line"/>
      <point x="333" y="883" type="line"/>
      <point x="411" y="792" type="line"/>
    </contour>
    <contour>
      <point x="57" y="37" type="line"/>
      <point x="497" y="37" type="line"/>
      <point x="475" y="0" type="line"/>
      <point x="13" y="0" type="line"/>
      <point x="157" y="681" type="line"/>
      <point x="630" y="681" type="line"/>
      <point x="614" y="644" type="line"/>
      <point x="186" y="644" type="line"/>
      <point x="129" y="373" type="line"/>
      <point x="521" y="373" type="line"/>
      <point x="502" y="336" type="line"/>
      <point x="121" y="336" type="line"/>
    </contour>
  </outline>
</glyph>
<glyph name="Hcircumflex" format="1">
  <advance width="673"/>
  <unicode hex="0124"/>
  <outline>
    <contour>
      <point x="666" y="672" type="line"/>
      <point x="705" y="679" type="line"/>
      <point x="564" y="18" type="line"/>
      <point x="524" y="3" type="line"/>
      <point x="600" y="361" type="line"/>
      <point x="111" y="295" type="line"/>
      <point x="52" y="18" type="line"/>
      <point x="12" y="3" type="line"/>
      <point x="154" y="672" type="line"/>
      <point x="193" y="679" type="line"/>
      <point x="119" y="333" type="line"/>
      <point x="608" y="399" type="line"/>
    </contour>
    <contour>
      <point x="324" y="743" type="line"/>
      <point x="308" y="771" type="line"/>
      <point x="472" y="884" type="line"/>
      <point x="567" y="771" type="line"/>
      <point x="539" y="745" type="line"/>
      <point x="459" y="833" type="line"/>
    </contour>
  </outline>
</glyph>
<glyph name="Jcircumflex" format="1">
  <advance width="459"/>
  <unicode hex="0134"/>
  <outline>
    <contour>
      <point x="284" y="679" type="line"/>
      <point x="533" y="679" type="line"/>
      <point x="525" y="641" type="line"/>
      <point x="472" y="641" type="line"/>
      <point x="369" y="157" type="line" smooth="yes"/>
      <point x="349" y="65"/>
      <point x="267" y="1"/>
      <point x="167" y="1" type="curve" smooth="yes"/>
      <point x="81" y="1"/>
      <point x="27" y="51"/>
      <point x="27" y="123" type="curve" smooth="yes"/>
      <point x="27" y="134"/>
      <point x="28" y="145"/>
      <point x="31" y="157" type="curve" smooth="yes"/>
      <point x="36" y="183" type="line"/>
      <point x="75" y="191" type="line"/>
      <point x="68" y="157" type="line" smooth="yes"/>
      <point x="66" y="147"/>
      <point x="65" y="138"/>
      <point x="65" y="130" type="curve" smooth="yes"/>
      <point x="65" y="73"/>
      <point x="106" y="33"/>
      <point x="174" y="33" type="curve" smooth="yes"/>
      <point x="254" y="33"/>
      <point x="316" y="84"/>
      <point x="332" y="157" type="curve" smooth="yes"/>
      <point x="435" y="641" type="line"/>
      <point x="276" y="641" type="line"/>
    </contour>
    <contour>
      <point x="319" y="743" type="line"/>
      <point x="303" y="771" type="line"/>
      <point x="467" y="884" type="line"/>
      <point x="562" y="771" type="line"/>
      <point x="534" y="745" type="line"/>
      <point x="454" y="833" type="line"/>
    </contour>
  </outline>
</glyph>
<glyph name="lcaron" format="1">
  <advance width="280"/>
  <unicode hex="013E"/>
  <outline>
    <contour>
      <point x="180" y="689" type="line"/>
      <point x="220" y="698" type="line"/>
      <point x="73" y="9" type="line"/>
      <point x="34" y="2" type="line"/>
    </contour>
    <contour>
      <point x="340" y="699" type="line"/>
      <point x="391" y="669" type="line"/>
      <point x="272" y="513" type="line"/>
      <point x="243" y="532" type="line"/>
      <point x="320" y="632" type="line"/>
      <point x="288" y="654" type="line"/>
    </contour>
  </outline>
</glyph>
<glyph name="Ncaron" format="1">
  <advance width="605"/>
  <unicode hex="0147"/>
  <outline>
    <contour>
      <point x="558" y="884" type="line"/>
      <point x="574" y="854" type="line"/>
      <point x="409" y="743" type="line"/>
      <point x="314" y="855" type="line"/>
      <point x="344" y="883" type="line"/>
      <point x="423" y="792" type="line"/>
    </contour>
    <contour>
      <point x="600" y="672" type="line"/>
      <point x="636" y="679" type="line"/>
      <point x="494" y="12" type="line"/>
      <point x="440" y="1" type="line"/>
      <point x="182" y="631" type="line"/>
      <point x="50" y="11" type="line"/>
      <point x="14" y="3" type="line"/>
      <point x="154" y="666" type="line"/>
      <point x="203" y="680" type="line"/>
      <point x="467" y="45" type="line"/>
    </contour>
  </outline>
</glyph>
<glyph name="ohungarumlaut" format="1">
  <advance width="545"/>
  <unicode hex="0151"/>
  <outline>
    <contour>
      <point x="230" y="617" type="line"/>
      <point x="393" y="730" type="line"/>
      <point x="424" y="698" type="line"/>
      <point x="250" y="593" type="line"/>
    </contour>
    <contour>
      <point x="397" y="617" type="line"/>
      <point x="560" y="730" type="line"/>
      <point x="592" y="698" type="line"/>
      <point x="418" y="593" type="line"/>
    </contour>
    <contour>
      <point x="197" y="0" type="curve" smooth="yes"/>
      <point x="100" y="0"/>
      <point x="40" y="76"/>
      <point x="40" y="176" type="curve" smooth="yes"/>
      <point x="40" y="347"/>
      <point x="191" y="500"/>
      <point x="335" y="500" type="curve" smooth="yes"/>
      <point x="431" y="500"/>
      <point x="492" y="424"/>
      <point x="492" y="325" type="curve" smooth="yes"/>
      <point x="492" y="154"/>
      <point x="334" y="0"/>
    </contour>
    <contour>
      <point x="323" y="467" type="curve" smooth="yes"/>
      <point x="208" y="467"/>
      <point x="79" y="325"/>
      <point x="79" y="177" type="curve" smooth="yes"/>
      <point x="79" y="94"/>
      <point x="124" y="32"/>
      <point x="205" y="32" type="curve" smooth="yes"/>
      <point x="316" y="32"/>
      <point x="452" y="170"/>
      <point x="452" y="315" type="curve" smooth="yes"/>
      <point x="452" y="401"/>
      <point x="401" y="467"/>
    </contour>
  </outline>
</glyph>
<glyph name="OE" format="1">
  <advance width="1083"/>
  <unicode hex="0152"/>
  <outline>
    <contour>
      <point x="506" y="0" type="line"/>
      <point x="548" y="202" type="line"/>
      <point x="467" y="77"/>
      <point x="359" y="0"/>
      <point x="250" y="0" type="curve" smooth="yes"/>
      <point x="131" y="0"/>
      <point x="61" y="99"/>
      <point x="61" y="230" type="curve" smooth="yes"/>
      <point x="61" y="465"/>
      <point x="260" y="684"/>
      <point x="438" y="684" type="curve" smooth="yes"/>
      <point x="512" y="684"/>
      <point x="596" y="635"/>
      <point x="618" y="529" type="curve"/>
      <point x="650" y="681" type="line"/>
      <point x="1122" y="681" type="line"/>
      <point x="1107" y="644" type="line"/>
      <point x="679" y="644" type="line"/>
      <point x="622" y="373" type="line"/>
      <point x="1014" y="373" type="line"/>
      <point x="995" y="336" type="line"/>
      <point x="614" y="336" type="line"/>
      <point x="550" y="37" type="line"/>
      <point x="990" y="37" type="line"/>
      <point x="968" y="0" type="line"/>
    </contour>
    <contour>
      <point x="583" y="365" type="curve"/>
      <point x="587.34" y="385.379"/>
      <point x="589.722" y="408.251"/>
      <point x="589.722" y="431.949" type="curve" smooth="yes"/>
      <point x="589.722" y="533.838"/>
      <point x="545.695" y="651"/>
      <point x="424" y="651" type="curve" smooth="yes"/>
      <point x="280" y="651"/>
      <point x="95" y="458"/>
      <point x="95" y="236" type="curve" smooth="yes"/>
      <point x="95" y="120"/>
      <point x="155" y="33"/>
      <point x="257" y="33" type="curve" smooth="yes"/>
      <point x="386" y="33"/>
      <point x="526" y="161"/>
    </contour>
  </outline>
</glyph>
<glyph name="Racute" format="1">
  <advance width="584"/>
  <unicode hex="0154"/>
  <outline>
    <contour>
      <point x="281" y="784" type="line"/>
      <point x="443" y="896" type="line"/>
      <point x="474" y="864" type="line"/>
      <point x="300" y="760" type="line"/>
    </contour>
    <contour>
      <point x="187" y="649" type="line"/>
      <point x="110" y="283" type="line"/>
      <point x="356" y="292"/>
      <point x="532" y="389"/>
      <point x="532" y="510" type="curve" smooth="yes"/>
      <point x="532" y="589"/>
      <point x="463" y="649"/>
      <point x="240" y="649" type="curve" smooth="yes"/>
    </contour>
    <contour>
      <point x="100" y="242" type="curve"/>
      <point x="50" y="9" type="line"/>
      <point x="13" y="2" type="line"/>
      <point x="158" y="683" type="line"/>
      <point x="180" y="685"/>
      <point x="226" y="687"/>
      <point x="261" y="687" type="curve" smooth="yes"/>
      <point x="391" y="687"/>
      <point x="569" y="663"/>
      <point x="569" y="521" type="curve" smooth="yes"/>
      <point x="569" y="423"/>
      <point x="478" y="326"/>
      <point x="314" y="278" type="curve"/>
      <point x="371" y="238"/>
      <point x="443" y="162"/>
      <point x="488" y="31" type="curve"/>
      <point x="456" y="6" type="line"/>
      <point x="408" y="156"/>
      <point x="332" y="218"/>
      <point x="287" y="244" type="curve" smooth="yes"/>
      <point x="272" y="253"/>
      <point x="243" y="257"/>
      <point x="220" y="257" type="curve" smooth="yes"/>
      <point x="195" y="257"/>
      <point x="143" y="250"/>
    </contour>
  </outline>
</glyph>
<glyph name="racute" format="1">
  <advance width="391"/>
  <unicode hex="0155"/>
  <outline>
    <contour>
      <point x="222" y="617" type="line"/>
      <point x="385" y="730" type="line"/>
      <point x="416" y="698" type="line"/>
      <point x="242" y="593" type="line"/>
    </contour>
    <contour>
      <point x="157" y="500" type="line"/>
      <point x="128" y="366" type="line"/>
      <point x="169" y="421"/>
      <point x="262" y="502"/>
      <point x="347" y="502" type="curve" smooth="yes"/>
      <point x="384" y="502"/>
      <point x="410" y="480"/>
      <point x="410" y="449" type="curve" smooth="yes"/>
      <point x="410" y="446"/>
      <point x="410" y="442"/>
      <point x="409" y="438" type="curve" smooth="yes"/>
      <point x="401" y="404" type="line"/>
      <point x="363" y="397" type="line"/>
      <point x="368" y="419" type="line" smooth="yes"/>
      <point x="369" y="426"/>
      <point x="371" y="433"/>
      <point x="371" y="439" type="curve" smooth="yes"/>
      <point x="371" y="455"/>
      <point x="362" y="466"/>
      <point x="332" y="466" type="curve" smooth="yes"/>
      <point x="254" y="466"/>
      <point x="126" y="357"/>
      <point x="104" y="252" type="curve" smooth="yes"/>
      <point x="52" y="9" type="line"/>
      <point x="14" y="2" type="line"/>
      <point x="118" y="493" type="line"/>
    </contour>
  </outline>
</glyph>
<glyph name="Sacute" format="1">
  <advance width="589"/>
  <unicode hex="015A"/>
  <outline>
    <contour>
      <point x="339" y="784" type="line"/>
      <point x="501" y="896" type="line"/>
      <point x="533" y="864" type="line"/>
      <point x="359" y="760" type="line"/>
    </contour>
    <contour>
      <point x="411" y="646" type="curve" smooth="yes"/>
      <point x="321" y="646"/>
      <point x="194" y="614"/>
      <point x="194" y="498" type="curve" smooth="yes"/>
      <point x="194" y="440"/>
      <point x="248" y="406"/>
      <point x="341" y="378" type="curve" smooth="yes"/>
      <point x="458" y="342"/>
      <point x="521" y="289"/>
      <point x="521" y="215" type="curve" smooth="yes"/>
      <point x="521" y="67"/>
      <point x="354" y="-1"/>
      <point x="251" y="-1" type="curve" smooth="yes"/>
      <point x="139" y="-1"/>
      <point x="57" y="54"/>
      <point x="41" y="138" type="curve"/>
      <point x="84" y="145" type="line"/>
      <point x="101" y="67"/>
      <point x="178" y="33"/>
      <point x="254" y="33" type="curve" smooth="yes"/>
      <point x="356" y="33"/>
      <point x="481" y="99"/>
      <point x="481" y="206" type="curve" smooth="yes"/>
      <point x="481" y="244"/>
      <point x="457" y="303"/>
      <point x="326" y="340" type="curve" smooth="yes"/>
      <point x="243" y="364"/>
      <point x="152" y="406"/>
      <point x="152" y="491" type="curve" smooth="yes"/>
      <point x="152" y="630"/>
      <point x="294" y="681"/>
      <point x="418" y="681" type="curve" smooth="yes"/>
      <point x="499" y="681"/>
      <point x="594" y="655"/>
      <point x="594" y="572" type="curve" smooth="yes"/>
      <point x="594" y="564"/>
      <point x="593" y="555"/>
      <point x="591" y="545" type="curve" smooth="yes"/>
      <point x="589" y="536" type="line"/>
      <point x="555" y="527" type="line"/>
      <point x="556" y="532" type="line" smooth="yes"/>
      <point x="557" y="540"/>
      <point x="558" y="547"/>
      <point x="558" y="554" type="curve" smooth="yes"/>
      <point x="558" y="628"/>
      <point x="469" y="646"/>
    </contour>
  </outline>
</glyph>
<glyph name="scedilla" format="1">
  <advance width="450"/>
  <unicode hex="015F"/>
  <outline>
    <contour>
      <point x="432" y="394" type="curve"/>
      <point x="400" y="386" type="line"/>
      <point x="402" y="395"/>
      <point x="402" y="402"/>
      <point x="402" y="408" type="curve" smooth="yes"/>
      <point x="402" y="459"/>
      <point x="347" y="475"/>
      <point x="300" y="475" type="curve" smooth="yes"/>
      <point x="190" y="475"/>
      <point x="142" y="424"/>
      <point x="142" y="365" type="curve" smooth="yes"/>
      <point x="142" y="327"/>
      <point x="179" y="304"/>
      <point x="249" y="284" type="curve" smooth="yes"/>
      <point x="337" y="258"/>
      <point x="383" y="225"/>
      <point x="383" y="168" type="curve" smooth="yes"/>
      <point x="383" y="35"/>
      <point x="234" y="0"/>
      <point x="179" y="0" type="curve" smooth="yes"/>
      <point x="165" y="0" type="line"/>
      <point x="155" y="-41" type="line"/>
      <point x="169" y="-41" type="line" smooth="yes"/>
      <point x="215" y="-41"/>
      <point x="245" y="-65"/>
      <point x="245" y="-105" type="curve" smooth="yes"/>
      <point x="245" y="-160"/>
      <point x="194" y="-209"/>
      <point x="141" y="-209" type="curve" smooth="yes"/>
      <point x="117" y="-209"/>
      <point x="97" y="-200"/>
      <point x="84" y="-184" type="curve"/>
      <point x="105" y="-168" type="line"/>
      <point x="114" y="-180"/>
      <point x="132" y="-186"/>
      <point x="146" y="-186" type="curve" smooth="yes"/>
      <point x="184" y="-186"/>
      <point x="220" y="-152"/>
      <point x="220" y="-112" type="curve" smooth="yes"/>
      <point x="220" y="-84"/>
      <point x="201" y="-64"/>
      <point x="172" y="-64" type="curve" smooth="yes"/>
      <point x="166" y="-64"/>
      <point x="149" y="-66"/>
      <point x="139" y="-72" type="curve"/>
      <point x="122" y="-52" type="line"/>
      <point x="152" y="1" type="line"/>
      <point x="85" y="8"/>
      <point x="32" y="43"/>
      <point x="24" y="107" type="curve"/>
      <point x="60" y="112" type="line"/>
      <point x="71" y="59"/>
      <point x="126" y="31"/>
      <point x="185" y="31" type="curve" smooth="yes"/>
      <point x="262" y="31"/>
      <point x="344" y="84"/>
      <point x="344" y="160" type="curve" smooth="yes"/>
      <point x="344" y="217"/>
      <point x="280" y="233"/>
      <point x="218" y="254" type="curve" smooth="yes"/>
      <point x="161" y="274"/>
      <point x="105" y="297"/>
      <point x="105" y="360" type="curve" smooth="yes"/>
      <point x="105" y="481"/>
      <point x="237" y="505"/>
      <point x="307" y="505" type="curve" smooth="yes"/>
      <point x="357" y="505"/>
      <point x="436" y="490"/>
      <point x="436" y="424" type="curve" smooth="yes"/>
      <point x="436" y="417"/>
      <point x="436" y="410"/>
    </contour>
  </outline>
</glyph>
<glyph name="uni0162" format="1">
  <advance width="512"/>
  <unicode hex="0162"/>
  <outline>
    <contour>
      <point x="178" y="2" type="line"/>
      <point x="314" y="644" type="line"/>
      <point x="92" y="644" type="line"/>
      <point x="100" y="681" type="line"/>
      <point x="598" y="681" type="line"/>
      <point x="590" y="644" type="line"/>
      <point x="352" y="644" type="line"/>
      <point x="217" y="9" type="line"/>
    </contour>
    <contour>
      <point x="194" y="-43" type="line"/>
      <point x="245" y="-73" type="line"/>
      <point x="126" y="-227" type="line"/>
      <point x="98" y="-208" type="line"/>
      <point x="175" y="-109" type="line"/>
      <point x="143" y="-88" type="line"/>
    </contour>
  </outline>
</glyph>
<glyph name="Uring" format="1">
  <advance width="674"/>
  <unicode hex="016E"/>
  <outline>
    <contour>
      <point x="287" y="0" type="curve" smooth="yes"/>
      <point x="130" y="0"/>
      <point x="79" y="88"/>
      <point x="79" y="225" type="curve" smooth="yes"/>
      <point x="79" y="346"/>
      <point x="130" y="565"/>
      <point x="157" y="671" type="curve"/>
      <point x="196" y="678" type="line"/>
      <point x="179" y="613"/>
      <point x="116" y="363"/>
      <point x="116" y="230" type="curve" smooth="yes"/>
      <point x="116" y="113"/>
      <point x="157" y="30"/>
      <point x="293" y="30" type="curve" smooth="yes"/>
      <point x="513" y="30"/>
      <point x="577" y="253"/>
      <point x="616" y="434" type="curve" smooth="yes"/>
      <point x="633" y="513"/>
      <point x="655" y="624"/>
      <point x="664" y="670" type="curve"/>
      <point x="704" y="678" type="line"/>
      <point x="699" y="653"/>
      <point x="679" y="556"/>
      <point x="663" y="480" type="curve" smooth="yes"/>
      <point x="613" y="247"/>
      <point x="542" y="0"/>
    </contour>
    <contour>
      <point x="445" y="743" type="curve" smooth="yes"/>
      <point x="390" y="743"/>
      <point x="357" y="776"/>
      <point x="357" y="819" type="curve" smooth="yes"/>
      <point x="357" y="886"/>
      <point x="431" y="948"/>
      <point x="509" y="948" type="curve" smooth="yes"/>
      <point x="567" y="948"/>
      <point x="598" y="911"/>
      <point x="598" y="870" type="curve" smooth="yes"/>
      <point x="598" y="790"/>
      <point x="505" y="743"/>
    </contour>
    <contour>
      <point x="501" y="923" type="curve" smooth="yes"/>
      <point x="458" y="923"/>
      <point x="382" y="884"/>
      <point x="382" y="823" type="curve" smooth="yes"/>
      <point x="382" y="790"/>
      <point x="410" y="767"/>
      <point x="453" y="767" type="curve" smooth="yes"/>
      <point x="506" y="767"/>
      <point x="571" y="812"/>
      <point x="571" y="864" type="curve" smooth="yes"/>
      <point x="571" y="898"/>
      <point x="543" y="923"/>
    </contour>
  </outline>
</glyph>
<glyph name="uring" format="1">
  <advance width="505"/>
  <unicode hex="016F"/>
  <outline>
    <contour>
      <point x="110" y="291" type="curve"/>
      <point x="98" y="231"/>
      <point x="84" y="171"/>
      <point x="84" y="123" type="curve" smooth="yes"/>
      <point x="84" y="66"/>
      <point x="104" y="26"/>
      <point x="168" y="26" type="curve" smooth="yes"/>
      <point x="244" y="26"/>
      <point x="336" y="97"/>
      <point x="365" y="123" type="curve" smooth="yes"/>
      <point x="375" y="132"/>
      <point x="385" y="149"/>
      <point x="391" y="175" type="curve" smooth="yes"/>
      <point x="460" y="495" type="line"/>
      <point x="500" y="502" type="line"/>
      <point x="395" y="9" type="line"/>
      <point x="350" y="2" type="line"/>
      <point x="369" y="90" type="line"/>
      <point x="321" y="47"/>
      <point x="235" y="-6"/>
      <point x="160" y="-6" type="curve" smooth="yes"/>
      <point x="74" y="-6"/>
      <point x="49" y="45"/>
      <point x="49" y="116" type="curve" smooth="yes"/>
      <point x="49" y="168"/>
      <point x="62" y="230"/>
      <point x="75" y="291" type="curve" smooth="yes"/>
      <point x="84" y="335"/>
      <point x="108" y="425"/>
      <point x="134" y="495" type="curve"/>
      <point x="171" y="502" type="line"/>
      <point x="158" y="465"/>
      <point x="127" y="368"/>
    </contour>
    <contour>
      <point x="341" y="587" type="curve" smooth="yes"/>
      <point x="286" y="587"/>
      <point x="252" y="620"/>
      <point x="252" y="663" type="curve" smooth="yes"/>
      <point x="252" y="730"/>
      <point x="328" y="792"/>
      <point x="405" y="792" type="curve" smooth="yes"/>
      <point x="463" y="792"/>
      <point x="494" y="755"/>
      <point x="494" y="714" type="curve" smooth="yes"/>
      <point x="494" y="634"/>
      <point x="401" y="587"/>
    </contour>
    <contour>
      <point x="397" y="767" type="curve" smooth="yes"/>
      <point x="355" y="767"/>
      <point x="278" y="728"/>
      <point x="278" y="668" type="curve" smooth="yes"/>
      <point x="278" y="634"/>
      <point x="304" y="611"/>
      <point x="348" y="611" type="curve" smooth="yes"/>
      <point x="401" y="611"/>
      <point x="467" y="656"/>
      <point x="467" y="708" type="curve" smooth="yes"/>
      <point x="467" y="742"/>
      <point x="439" y="767"/>
    </contour>
  </outline>
</glyph>
<glyph name="Ydieresis" format="1">
  <advance width="618"/>
  <unicode hex="0178"/>
  <outline>
    <contour>
      <point x="404" y="822" type="line"/>
      <point x="384" y="758" type="line"/>
      <point x="328" y="750" type="line"/>
      <point x="348" y="814" type="line"/>
    </contour>
    <contour>
      <point x="569" y="822" type="line"/>
      <point x="548" y="758" type="line"/>
      <point x="493" y="750" type="line"/>
      <point x="513" y="814" type="line"/>
    </contour>
    <contour>
      <point x="318" y="243" type="line"/>
      <point x="667" y="677" type="line"/>
      <point x="707" y="677" type="line"/>
      <point x="162" y="0" type="line"/>
      <point x="123" y="0" type="line"/>
      <point x="290" y="210" type="line"/>
      <point x="117" y="677" type="line"/>
      <point x="156" y="677" type="line"/>
    </contour>
  </outline>
</glyph>
<glyph name="Zacute" format="1">
  <advance width="611"/>
  <unicode hex="0179"/>
  <outline>
    <contour>
      <point x="364" y="784" type="line"/>
      <point x="526" y="896" type="line"/>
      <point x="557" y="864" type="line"/>
      <point x="384" y="760" type="line"/>
    </contour>
    <contour>
      <point x="17" y="0" type="line"/>
      <point x="6" y="44" type="line"/>
      <point x="598" y="639" type="line"/>
      <point x="163" y="639" type="line"/>
      <point x="181" y="681" type="line"/>
      <point x="636" y="681" type="line"/>
      <point x="647" y="637" type="line"/>
      <point x="53" y="42" type="line"/>
      <point x="510" y="42" type="line"/>
      <point x="526" y="0" type="line"/>
    </contour>
  </outline>
</glyph>
<glyph name="Zdotaccent" format="1">
  <advance width="611"/>
  <unicode hex="017B"/>
  <outline>
    <contour>
      <point x="17" y="0" type="line"/>
      <point x="6" y="44" type="line"/>
      <point x="598" y="639" type="line"/>
      <point x="163" y="639" type="line"/>
      <point x="181" y="681" type="line"/>
      <point x="636" y="681" type="line"/>
      <point x="647" y="637" type="line"/>
      <point x="53" y="42" type="line"/>
      <point x="510" y="42" type="line"/>
      <point x="494" y="0" type="line"/>
    </contour>
    <contour>
      <point x="460" y="823" type="line"/>
      <point x="439" y="759" type="line"/>
      <point x="384" y="751" type="line"/>
      <point x="404" y="815" type="line"/>
    </contour>
  </outline>
</glyph>
<glyph name="zdotaccent" format="1">
  <advance width="443"/>
  <unicode hex="017C"/>
  <outline>
    <contour>
      <point x="359" y="669" type="line"/>
      <point x="338" y="604" type="line"/>
      <point x="281" y="596" type="line"/>
      <point x="302" y="660" type="line"/>
    </contour>
    <contour>
      <point x="349" y="0" type="line"/>
      <point x="-4" y="0" type="line"/>
      <point x="-15" y="35" type="line"/>
      <point x="418" y="465" type="line"/>
      <point x="100" y="465" type="line"/>
      <point x="116" y="502" type="line"/>
      <point x="453" y="502" type="line"/>
      <point x="464" y="468" type="line"/>
      <point x="30" y="37" type="line"/>
      <point x="363" y="37" type="line"/>
    </contour>
  </outline>
</glyph>
<glyph name="dotaccent" format="1">
  <advance width="490"/>
  <unicode hex="02D9"/>
  <outline>
    <contour>
      <point x="362" y="644" type="line"/>
      <point x="342" y="579" type="line"/>
      <point x="286" y="571" type="line"/>
      <point x="305" y="635" type="line"/>
    </contour>
  </outline>
</glyph>
<glyph name="hungarumlaut" format="1">
  <advance width="490"/>
  <unicode hex="02DD"/>
  <outline>
    <contour>
      <point x="153" y="617" type="line"/>
      <point x="317" y="730" type="line"/>
      <point x="347" y="698" type="line"/>
      <point x="173" y="593" type="line"/>
    </contour>
    <contour>
      <point x="320" y="617" type="line"/>
      <point x="484" y="730" type="line"/>
      <point x="515" y="698" type="line"/>
      <point x="341" y="593" type="line"/>
    </contour>
  </outline>
</glyph>
<glyph name="endash" format="1">
  <advance width="586"/>
  <unicode hex="2013"/>
  <outline>
    <contour>
      <point x="511" y="231" type="line"/>
      <point x="69" y="231" type="line"/>
      <point x="84" y="267" type="line"/>
      <point x="526" y="267" type="line"/>
    </contour>
  </outline>
</glyph>
<glyph name="emdash" format="1">
  <advance width="867"/>
  <unicode hex="2014"/>
  <outline>
    <contour>
      <point x="802" y="231" type="line"/>
      <point x="66" y="231" type="line"/>
      <point x="82" y="269" type="line"/>
      <point x="817" y="269" type="line"/>
    </contour>
  </outline>
</glyph>
<glyph name="quotedblright" format="1">
  <advance width="338"/>
  <unicode hex="201D"/>
  <outline>
    <contour>
      <point x="193" y="756" type="line"/>
      <point x="245" y="726" type="line"/>
      <point x="125" y="571" type="line"/>
      <point x="97" y="589" type="line"/>
      <point x="174" y="689" type="line"/>
      <point x="142" y="711" type="line"/>
    </contour>
    <contour>
      <point x="366" y="756" type="line"/>
      <point x="417" y="726" type="line"/>
      <point x="298" y="571" type="line"/>
      <point x="270" y="589" type="line"/>
      <point x="347" y="689" type="line"/>
      <point x="314" y="711" type="line"/>
    </contour>
  </outline>
</glyph>
<glyph name="quotedblbase" format="1">
  <advance width="478"/>
  <unicode hex="201E"/>
  <outline>
    <contour>
      <point x="118" y="61" type="line"/>
      <point x="170" y="31" type="line"/>
      <point x="50" y="-124" type="line"/>
      <point x="22" y="-106" type="line"/>
      <point x="99" y="-6" type="line"/>
      <point x="67" y="16" type="line"/>
    </contour>
    <contour>
      <point x="291" y="61" type="line"/>
      <point x="342" y="31" type="line"/>
      <point x="223" y="-124" type="line"/>
      <point x="195" y="-106" type="line"/>
      <point x="272" y="-6" type="line"/>
      <point x="239" y="16" type="line"/>
    </contour>
  </outline>
</glyph>
<glyph name="bullet" format="1">
  <advance width="368"/>
  <unicode hex="2022"/>
  <outline>
    <contour>
      <point x="268" y="253" type="curve"/>
      <point x="259" y="208"/>
      <point x="215" y="171"/>
      <point x="170" y="171" type="curve" smooth="yes"/>
      <point x="130" y="171"/>
      <point x="103" y="199"/>
      <point x="103" y="237" type="curve" smooth="yes"/>
      <point x="103" y="289"/>
      <point x="155" y="335"/>
      <point x="205" y="335" type="curve" smooth="yes"/>
      <point x="245.718" y="335"/>
      <point x="269.199" y="304.442"/>
      <point x="269.199" y="267.6" type="curve" smooth="yes"/>
      <point x="269.199" y="262.822"/>
      <point x="268.804" y="257.937"/>
    </contour>
  </outline>
</glyph>
<glyph name="guilsinglright" format="1">
  <advance width="394"/>
  <unicode hex="203A"/>
  <outline>
    <contour>
      <point x="86" y="73" type="line"/>
      <point x="67" y="99" type="line"/>
      <point x="267" y="252" type="line"/>
      <point x="117" y="410" type="line"/>
      <point x="144" y="435" type="line"/>
      <point x="321" y="251" type="line"/>
    </contour>
  </outline>
</glyph>
<glyph name="Euro" format="1">
  <advance width="653"/>
  <unicode hex="20AC"/>
  <outline>
    <contour>
      <point x="374" y="0" type="curve" smooth="yes"/>
      <point x="243" y="0"/>
      <point x="144" y="105"/>
      <point x="144" y="235" type="curve" smooth="yes"/>
      <point x="144" y="247"/>
      <point x="145" y="259"/>
      <point x="147" y="272" type="curve"/>
      <point x="66" y="272" type="line"/>
      <point x="81" y="310" type="line"/>
      <point x="155" y="310" type="line"/>
      <point x="166" y="346"/>
      <point x="176" y="376"/>
      <point x="187" y="401" type="curve"/>
      <point x="94" y="401" type="line"/>
      <point x="109" y="440" type="line"/>
      <point x="207" y="440" type="line"/>
      <point x="245" y="514"/>
      <point x="384" y="699"/>
      <point x="534" y="699" type="curve" smooth="yes"/>
      <point x="596" y="699"/>
      <point x="645" y="681"/>
      <point x="679" y="646" type="curve"/>
      <point x="649" y="622" type="line"/>
      <point x="623" y="645"/>
      <point x="582" y="663"/>
      <point x="521" y="663" type="curve" smooth="yes"/>
      <point x="418" y="663"/>
      <point x="294" y="528"/>
      <point x="243" y="440" type="curve"/>
      <point x="482" y="440" type="line"/>
      <point x="467" y="401" type="line"/>
      <point x="222" y="401" type="line"/>
      <point x="208" y="370"/>
      <point x="198" y="340"/>
      <point x="188" y="310" type="curve"/>
      <point x="434" y="310" type="line"/>
      <point x="417" y="272" type="line"/>
      <point x="182" y="272" type="line"/>
      <point x="181" y="263"/>
      <point x="180" y="255"/>
      <point x="180" y="247" type="curve" smooth="yes"/>
      <point x="180" y="139"/>
      <point x="266" y="35"/>
      <point x="374" y="35" type="curve" smooth="yes"/>
      <point x="435" y="35"/>
      <point x="483" y="48"/>
      <point x="522" y="69" type="curve"/>
      <point x="542" y="44" type="line"/>
      <point x="491" y="15"/>
      <point x="432" y="0"/>
    </contour>
  </outline>
</glyph>
